  0
SECTION
  2
HEADER
  0
ENDSEC
  0
SECTION
  2
TABLES
  0
TABLE
  2
LTYPE
 70
5
  0
LTYPE
  2
CONTINUOUS
 70
0
  3
CONTINUOUS
 72
65
 73
0
 40
0.0
  0
LTYPE
  2
DASHED
 70
0
  3
DASHED
 72
65
 73
2
 40
0.75
 49
0.5
 49
-0.25
  0
LTYPE
  2
DOT
 70
0
  3
DOT
 72
65
 73
2
 40
0.25
 49
0.0
 49
-0.25
  0
LTYPE
  2
CENTRE
 70
0
  3
CENTRE
 72
65
 73
4
 40
2.0
 49
1.25
 49
-0.25
 49
0.25
 49
-0.25
  0
LTYPE
  2
DASHDOT
 70
0
  3
DASHDOT
 72
65
 73
4
 40
1.0
 49
0.5
 49
-0.25
 49
0.0
 49
-0.25
  0
ENDTAB
  0
TABLE
  2
LAYER
 70
18
  0
LAYER
  2
0
 70
0
 62
7
  6
CONTINUOUS
  0
LAYER
  2
BLACK
 70
0
 62
250
  6
CONTINUOUS
  0
LAYER
  2
DARK_BLUE
 70
0
 62
172
  6
CONTINUOUS
  0
LAYER
  2
DARK_GREEN
 70
0
 62
92
  6
CONTINUOUS
  0
LAYER
  2
DARK_CYAN
 70
0
 62
132
  6
CONTINUOUS
  0
LAYER
  2
DARK_RED
 70
0
 62
12
  6
CONTINUOUS
  0
LAYER
  2
DARK_MAGENTA
 70
0
 62
212
  6
CONTINUOUS
  0
LAYER
  2
BROWN
 70
0
 62
32
  6
CONTINUOUS
  0
LAYER
  2
LIGHT_GREY
 70
0
 62
9
  6
CONTINUOUS
  0
LAYER
  2
DARK_GREY
 70
0
 62
8
  6
CONTINUOUS
  0
LAYER
  2
BLUE
 70
0
 62
5
  6
CONTINUOUS
  0
LAYER
  2
GREEN
 70
0
 62
3
  6
CONTINUOUS
  0
LAYER
  2
CYAN
 70
0
 62
4
  6
CONTINUOUS
  0
LAYER
  2
RED
 70
0
 62
1
  6
CONTINUOUS
  0
LAYER
  2
MAGENTA
 70
0
 62
6
  6
CONTINUOUS
  0
LAYER
  2
YELLOW
 70
0
 62
2
  6
CONTINUOUS
  0
LAYER
  2
WHITE
 70
0
 62
7
  6
CONTINUOUS
  0
LAYER
  2
SHEET
 70
0
 62
3
  6
CONTINUOUS
  0
ENDTAB
  0
ENDSEC
  0
SECTION
  2
BLOCKS
  0
ENDSEC
  0
SECTION
  2
ENTITIES
  0
LINE
  8
CYAN
 10
11.68421
 20
696.61523
 11
8.75244
 21
696.99506
  0
ARC
  8
CYAN
 10
7.1309182731
 20
607.13153481
 40
89.8781535874
 50
88.9662516598
 51
138.7793469707
  0
LINE
  8
CYAN
 10
-60.4734
 20
666.3577
 11
-60.96258
 21
664.94687
  0
ARC
  8
CYAN
 10
-60.0043355824
 20
664.7666035854
 40
0.9750529955
 50
169.3459464874
 51
305.2311812604
  0
LINE
  8
CYAN
 10
-59.44185
 20
663.97015
 11
-57.54162
 21
665.38097
  0
ARC
  8
CYAN
 10
1.0497165815
 20
609.895832489
 40
80.6941460518
 50
84.8708833128
 51
136.5597267868
  0
LINE
  8
CYAN
 10
8.26381
 20
690.26686
 11
12.00997
 21
693.90244
  0
ARC
  8
CYAN
 10
10.8179398146
 20
695.1352515437
 40
1.7148645034
 50
314.0364816712
 51
59.658442746
  0
LINE
  8
CYAN
 10
-70.69307
 20
660.25316
 11
-74.00544
 21
658.13727
  0
ARC
  8
CYAN
 10
-170.1892635618
 20
733.8208446134
 40
122.3900787696
 50
289.4463165075
 51
321.8020716061
  0
LINE
  8
CYAN
 10
-129.44273
 20
618.41265
 11
-131.723
 21
617.3274
  0
ARC
  8
CYAN
 10
-129.0294725638
 20
616.5427530066
 40
2.8054876499
 50
163.7587183705
 51
199.8236168939
  0
LINE
  8
CYAN
 10
-131.66871
 20
615.59134
 11
-131.0172
 21
615.26577
  0
LINE
  8
CYAN
 10
-131.0172
 20
615.26577
 11
-129.17127
 21
615.80839
  0
ARC
  8
CYAN
 10
-170.3038314111
 20
743.9176390157
 40
134.5506123792
 50
287.8004789623
 51
321.9930230072
  0
ARC
  8
CYAN
 10
-66.8074057728
 20
661.3815687461
 40
2.5403548478
 50
352.8891552856
 51
32.5732928487
  0
LINE
  8
CYAN
 10
-64.66664
 20
662.74924
 11
-65.91536
 21
662.64072
  0
ARC
  8
CYAN
 10
-35.5696039575
 20
595.9422077529
 40
73.277257357
 50
114.4640640111
 51
118.6411875827
  0
LINE
  8
CYAN
 10
-26.23776
 20
654.94815
 11
-24.01178
 21
655.1652
  0
LINE
  8
CYAN
 10
-24.01178
 20
655.1652
 11
-19.88502
 21
657.7698
  0
ARC
  8
CYAN
 10
-20.9386000857
 20
659.6705415414
 40
2.1732117716
 50
298.9995813605
 51
67.3641566354
  0
LINE
  8
CYAN
 10
-20.10219
 20
661.67635
 11
-27.3236
 21
662.97865
  0
ARC
  8
CYAN
 10
-28.5099992632
 20
595.7867602425
 40
67.2023629971
 50
88.9884403012
 51
127.4515422862
  0
LINE
  8
CYAN
 10
-69.3751
 20
649.13656
 11
-71.92683
 21
646.80362
  0
ARC
  8
CYAN
 10
-70.7313904488
 20
646.3194404078
 40
1.2897695911
 50
157.9509583639
 51
297.5326146584
  0
ARC
  8
CYAN
 10
-36.5890923132
 20
597.9667817112
 40
57.9139569769
 50
79.7038325346
 51
125.397126958
  0
LINE
  8
CYAN
 10
-25.20787
 20
678.07977
 11
-26.29426
 21
675.85535
  0
LINE
  8
CYAN
 10
-26.29426
 20
675.85535
 11
-30.14901
 21
669.5609
  0
ARC
  8
CYAN
 10
-34.9278864333
 20
672.3418827462
 40
5.5291522858
 50
285.3866317692
 51
329.8034906685
  0
ARC
  8
CYAN
 10
-19.3614366187
 20
562.1940850072
 40
105.7608608857
 50
97.6611324832
 51
106.5139484979
  0
LINE
  8
CYAN
 10
-49.42383
 20
663.59237
 11
-51.10745
 21
663.21253
  0
LINE
  8
CYAN
 10
-51.10745
 20
663.21253
 11
-51.97612
 21
663.86368
  0
LINE
  8
CYAN
 10
-51.97612
 20
663.86368
 11
-51.92183
 21
665.16598
  0
ARC
  8
CYAN
 10
8.7081236046
 20
595.4698359711
 40
92.3771820668
 50
113.3986758067
 51
131.020605686
  0
ARC
  8
CYAN
 10
-27.1437517694
 20
678.4617713867
 40
1.9732114141
 50
348.8374142277
 51
114.9888848033
  0
LINE
  8
CYAN
 10
-7.37344
 20
674.63994
 11
-4.33308
 21
674.58568
  0
LINE
  8
CYAN
 10
-4.33308
 20
674.58568
 11
4.02846
 21
683.21307
  0
ARC
  8
CYAN
 10
1.5465471302
 20
683.821716334
 40
2.5554533557
 50
346.2211191993
 51
62.5271485475
  0
ARC
  8
CYAN
 10
-1.9237565971
 20
627.6894019491
 40
58.5843580361
 50
85.4482676742
 51
104.0733240481
  0
LINE
  8
CYAN
 10
-16.16933
 20
684.51537
 11
-17.47234
 21
683.21307
  0
LINE
  8
CYAN
 10
-17.47234
 20
683.21307
 11
-16.82084
 21
680.55421
  0
LINE
  8
CYAN
 10
-16.82084
 20
680.55421
 11
-7.37344
 21
674.63994
  0
LINE
  8
CYAN
 10
12.68751
 20
712.37814
 11
8.99564
 21
712.22428
  0
LINE
  8
CYAN
 10
8.99564
 20
712.22428
 11
0.99586
 21
709.76461
  0
LINE
  8
CYAN
 10
0.99586
 20
709.76461
 11
0.07289
 21
707.91969
  0
LINE
  8
CYAN
 10
0.07289
 20
707.91969
 11
-0.38859
 21
702.84649
  0
LINE
  8
CYAN
 10
-0.38859
 20
702.84649
 11
0.53438
 21
701.61665
  0
LINE
  8
CYAN
 10
0.53438
 20
701.61665
 11
2.68833
 21
701.00156
  0
LINE
  8
CYAN
 10
2.68833
 20
701.00156
 11
14.37999
 21
701.77016
  0
LINE
  8
CYAN
 10
14.37999
 20
701.77016
 11
16.22592
 21
702.84649
  0
ARC
  8
CYAN
 10
9.7794096565
 20
705.8759709252
 40
7.1228681221
 50
334.8292341076
 51
65.9033809193
  0
LINE
  8
CYAN
 10
-53.89851
 20
644.23783
 11
-53.89851
 21
645.81144
  0
ARC
  8
CYAN
 10
-55.6613135361
 20
645.4366624822
 40
1.8022026786
 50
12.0025518261
 51
97.8632038903
  0
ARC
  8
CYAN
 10
-44.603269578
 20
603.3085701812
 40
45.3450800309
 50
104.436187572
 51
122.0515354674
  0
ARC
  8
CYAN
 10
-67.2365596712
 20
640.0053511376
 40
2.2497709707
 50
129.4831699989
 51
198.2731787567
  0
LINE
  8
CYAN
 10
-69.37288
 20
639.29994
 11
-61.82572
 21
633.98256
  0
LINE
  8
CYAN
 10
-61.82572
 20
633.98256
 11
-59.92549
 21
633.60272
  0
LINE
  8
CYAN
 10
-59.92549
 20
633.60272
 11
-54.71289
 21
635.01354
  0
LINE
  8
CYAN
 10
-54.71289
 20
635.01354
 11
-52.75837
 21
636.04453
  0
LINE
  8
CYAN
 10
-52.75837
 20
636.04453
 11
-52.59549
 21
638.16077
  0
LINE
  8
CYAN
 10
-52.59549
 20
638.16077
 11
-53.89851
 21
644.23783
  0
ARC
  8
CYAN
 10
-59.2514879372
 20
671.2463371232
 40
24.0354878007
 50
293.6506679784
 51
302.4601270092
  0
ARC
  8
CYAN
 10
-37.0265896812
 20
615.9007800278
 40
36.2839182575
 50
85.0850241869
 51
104.8917728889
  0
LINE
  8
CYAN
 10
-33.91788
 20
652.05128
 11
-32.01766
 21
651.34587
  0
LINE
  8
CYAN
 10
-32.01766
 20
651.34587
 11
-31.42044
 21
650.31488
  0
LINE
  8
CYAN
 10
-31.42044
 20
650.31488
 11
-31.52903
 21
649.2839
  0
LINE
  8
CYAN
 10
-31.52903
 20
649.2839
 11
-46.56906
 21
639.29994
  0
LINE
  8
CYAN
 10
-46.56906
 20
639.29994
 11
-48.03495
 21
639.02863
  0
LINE
  8
CYAN
 10
-48.03495
 20
639.02863
 11
-48.74075
 21
639.84256
  0
LINE
  8
CYAN
 10
-48.74075
 20
639.84256
 11
-49.93518
 21
647.87307
  0
LINE
  8
CYAN
 10
-49.93518
 20
647.87307
 11
-49.60943
 21
649.22963
  0
LINE
  8
CYAN
 10
-10.59109
 20
671.73346
 11
-9.17949
 21
670.21411
  0
ARC
  8
CYAN
 10
-10.7388005607
 20
669.3473475906
 40
1.7840197586
 50
304.7306568481
 51
29.0680451908
  0
LINE
  8
CYAN
 10
-9.72241
 20
667.88117
 11
-11.94839
 21
666.09051
  0
LINE
  8
CYAN
 10
-11.94839
 20
666.09051
 11
-13.30569
 21
664.67968
  0
LINE
  8
CYAN
 10
-13.30569
 20
664.67968
 11
-15.36935
 21
664.19132
  0
LINE
  8
CYAN
 10
-15.36935
 20
664.19132
 11
-25.73971
 21
667.28428
  0
LINE
  8
CYAN
 10
-25.73971
 20
667.28428
 11
-26.11975
 21
668.96642
  0
LINE
  8
CYAN
 10
-26.11975
 20
668.96642
 11
-22.15587
 21
674.98921
  0
ARC
  8
CYAN
 10
-19.3323389508
 20
673.4614702121
 40
3.2103452221
 50
51.2719995013
 51
151.5833235073
  0
LINE
  8
CYAN
 10
-17.32387
 20
675.96594
 11
-10.59109
 21
671.73346
  0
LINE
  8
CYAN
 10
-77.49953
 20
637.80463
 11
-74.78492
 21
638.02168
  0
LINE
  8
CYAN
 10
-74.78492
 20
638.02168
 11
-71.25538
 21
636.23136
  0
ARC
  8
CYAN
 10
-94.1811881781
 20
607.2121183248
 40
36.9825508588
 50
43.112572141
 51
51.690526205
  0
ARC
  8
CYAN
 10
-69.1021809346
 20
631.7656980101
 40
2.0498997352
 50
289.0771385878
 51
20.6093131907
  0
LINE
  8
CYAN
 10
-68.43219
 20
629.82838
 11
-80.81191
 21
626.03035
  0
LINE
  8
CYAN
 10
-80.81191
 20
626.03035
 11
-82.44067
 21
626.51871
  0
LINE
  8
CYAN
 10
-82.44067
 20
626.51871
 11
-84.23231
 21
632.97561
  0
LINE
  8
CYAN
 10
-84.23231
 20
632.97561
 11
-83.36364
 21
634.71201
  0
LINE
  8
CYAN
 10
-83.36364
 20
634.71201
 11
-77.49953
 21
637.80463
  0
LINE
  8
CYAN
 10
-102.63847
 20
623.85985
 11
-90.63934
 21
630.58806
  0
ARC
  8
CYAN
 10
-89.1367220862
 20
628.2503804745
 40
2.7789577469
 50
64.1300584665
 51
122.7321727114
  0
LINE
  8
CYAN
 10
-87.92418
 20
630.75085
 11
-87.32697
 21
629.55707
  0
LINE
  8
CYAN
 10
-87.32697
 20
629.55707
 11
-86.34971
 21
625.92183
  0
ARC
  8
CYAN
 10
-89.5036369097
 20
626.0016855832
 40
3.1549376961
 50
303.5217834776
 51
358.5496142826
  0
LINE
  8
CYAN
 10
-87.76131
 20
623.37149
 11
-97.37213
 21
619.84477
  0
LINE
  8
CYAN
 10
-97.37213
 20
619.84477
 11
-99.86957
 21
619.84477
  0
LINE
  8
CYAN
 10
-99.86957
 20
619.84477
 11
-103.39856
 21
621.85214
  0
LINE
  8
CYAN
 10
-103.39856
 20
621.85214
 11
-103.61573
 21
623.04591
  0
LINE
  8
CYAN
 10
-103.61573
 20
623.04591
 11
-102.63847
 21
623.85985
  0
LINE
  8
CYAN
 10
-5.74579
 20
706.88458
 11
-4.38848
 21
706.23343
  0
LINE
  8
CYAN
 10
-4.38848
 20
706.23343
 11
-4.22561
 21
701.89277
  0
ARC
  8
CYAN
 10
-7.57306037
 20
702.8479895114
 40
3.4810728654
 50
301.6625794165
 51
344.0735142041
  0
ARC
  8
CYAN
 10
1.8323704097
 20
633.8050226804
 40
66.5131554458
 50
96.5421874669
 51
112.3369527328
  0
LINE
  8
CYAN
 10
-23.44614
 20
695.32735
 11
-25.29208
 21
695.65293
  0
LINE
  8
CYAN
 10
-25.29208
 20
695.65293
 11
-25.56354
 21
696.57504
  0
ARC
  8
CYAN
 10
17.7623604692
 20
637.4931654463
 40
73.265282039
 50
108.7151501411
 51
126.253328477
  0
LINE
  8
CYAN
 10
-87.68707
 20
649.87391
 11
-88.75186
 21
650.27917
  0
LINE
  8
CYAN
 10
-88.75186
 20
650.27917
 11
-108.11311
 21
638.68004
  0
ARC
  8
CYAN
 10
-105.2719702019
 20
638.2323901646
 40
2.8761894457
 50
171.0460898163
 51
290.5758892784
  0
ARC
  8
CYAN
 10
-137.9534750035
 20
696.9675587787
 40
70.0610999716
 50
298.7441541956
 51
314.8425751692
  0
LINE
  8
CYAN
 10
-88.5491
 20
647.29095
 11
-87.43389
 21
648.86113
  0
LINE
  8
CYAN
 10
-87.43389
 20
648.86113
 11
-87.68707
 21
649.87391
  0
LINE
  8
CYAN
 10
-112.49194
 20
619.49927
 11
-125.84892
 21
613.36795
  0
LINE
  8
CYAN
 10
-125.84892
 20
613.36795
 11
-126.33755
 21
613.09664
  0
ARC
  8
CYAN
 10
-121.5669701437
 20
612.3140071839
 40
4.8343506585
 50
170.6833869129
 51
195.3452507922
  0
LINE
  8
CYAN
 10
-126.22897
 20
611.03467
 11
-125.57746
 21
610.32925
  0
LINE
  8
CYAN
 10
-125.57746
 20
610.32925
 11
-124.32874
 21
610.00368
  0
ARC
  8
CYAN
 10
12.349702981
 20
257.8593374797
 40
377.7388446331
 50
108.2898723333
 51
111.2128199258
  0
ARC
  8
CYAN
 10
-106.412909939
 20
617.7456401611
 40
1.2497727317
 50
280.0856292505
 51
38.4360605503
  0
ARC
  8
CYAN
 10
-109.4234655975
 20
615.6831293908
 40
4.896781015
 50
35.4403110633
 51
128.8019931662
  0
LINE
  8
CYAN
 10
-129.36572
 20
624.63155
 11
-127.54084
 21
627.21485
  0
ARC
  8
CYAN
 10
-79.5799018943
 20
560.278148921
 40
82.3454524264
 50
113.7089643491
 51
125.6220456767
  0
ARC
  8
CYAN
 10
-112.814241326
 20
633.2129125145
 40
2.4638283664
 50
328.4952070618
 51
87.1158565793
  0
LINE
  8
CYAN
 10
-110.71359
 20
631.92539
 11
-123.84122
 21
624.83417
  0
LINE
  8
CYAN
 10
-123.84122
 20
624.83417
 11
-127.28766
 21
623.26399
  0
LINE
  8
CYAN
 10
-127.28766
 20
623.26399
 11
-128.70702
 21
623.01088
  0
LINE
  8
CYAN
 10
-128.70702
 20
623.01088
 11
-129.36572
 21
623.46662
  0
LINE
  8
CYAN
 10
-129.36572
 20
623.46662
 11
-129.36572
 21
624.63155
  0
LINE
  8
CYAN
 10
-69.06707
 20
612.73672
 11
-61.17984
 21
615.60287
  0
LINE
  8
CYAN
 10
-61.17984
 20
615.60287
 11
-57.33664
 21
615.51957
  0
ARC
  8
CYAN
 10
-82.2803971922
 20
517.5105982806
 40
101.1333256664
 50
52.8434182539
 51
75.7210899853
  0
ARC
  8
CYAN
 10
-21.9775388782
 20
596.8207111211
 40
1.5097437123
 50
211.1229688723
 51
58.8394410955
  0
ARC
  8
CYAN
 10
-74.439976308
 20
509.4459788874
 40
100.583082006
 50
59.4204792282
 51
87.039384079
  0
ARC
  8
CYAN
 10
-68.370349906
 20
611.2666015028
 40
1.6268581024
 50
115.3572577892
 51
237.4812120724
  0
LINE
  8
CYAN
 10
-80.70277
 20
582.03651
 11
-76.95384
 21
583.53525
  0
ARC
  8
CYAN
 10
-33.6709029715
 20
497.3441391853
 40
96.4485366467
 50
94.0005283416
 51
116.6646144566
  0
ARC
  8
CYAN
 10
-41.3573996311
 20
595.3787474807
 40
2.0575499445
 50
297.7397584721
 51
78.9208263476
  0
ARC
  8
CYAN
 10
-28.0389032559
 20
449.8017863136
 40
148.1608390326
 50
95.0038969682
 51
116.0777216614
  0
ARC
  8
CYAN
 10
-91.7743713421
 20
582.1880821459
 40
1.5566047105
 50
153.6231482773
 51
270.4237153633
  0
ARC
  8
CYAN
 10
-89.5098289138
 20
607.1306888677
 40
26.5947757981
 50
265.1402453665
 51
289.3390448247
  0
LINE
  8
CYAN
 10
-83.70213
 20
595.99296
 11
-73.48579
 21
603.76727
  0
ARC
  8
CYAN
 10
-68.9449786225
 20
598.5466664751
 40
6.9190800783
 50
93.4537213545
 51
131.0163113402
  0
ARC
  8
CYAN
 10
-67.8832517788
 20
525.1400289773
 40
80.3267597506
 50
74.7634059006
 51
91.0546841115
  0
ARC
  8
CYAN
 10
-47.2242398817
 20
601.4525270419
 40
1.2733410737
 50
295.3377098724
 51
69.2419857621
  0
ARC
  8
CYAN
 10
-41.7446561556
 20
490.7425829648
 40
109.6701716591
 50
92.578917539
 51
111.5954436384
  0
ARC
  8
CYAN
 10
-82.4552260039
 20
594.5725717775
 40
1.8900455756
 50
131.2786481116
 51
280.5605130039
  0
LINE
  8
CYAN
 10
3.3066
 20
582.90745
 11
-7.95016
 21
582.55234
  0
LINE
  8
CYAN
 10
-7.95016
 20
582.55234
 11
-15.60102
 21
584.21451
  0
LINE
  8
CYAN
 10
-15.60102
 20
584.21451
 11
-34.11289
 21
594.45953
  0
ARC
  8
CYAN
 10
-33.6725100874
 20
595.5740196213
 40
1.1983411799
 50
85.5695718208
 51
248.4390201206
  0
ARC
  8
CYAN
 10
10.4091080557
 20
673.8007407971
 40
88.7071549149
 50
240.271502519
 51
255.1443956428
  0
ARC
  8
CYAN
 10
4.2986892176
 20
645.1944201158
 40
59.5075233914
 50
253.7693172631
 51
269.3872231905
  0
ARC
  8
CYAN
 10
2.5796295168
 20
584.414516219
 40
1.6732407693
 50
295.7514814245
 51
49.6817933641
  0
LINE
  8
CYAN
 10
-34.11289
 20
589.78231
 11
-37.66792
 21
589.90079
  0
ARC
  8
CYAN
 10
-37.9833914078
 20
586.3268291149
 40
3.5878571066
 50
84.9556095145
 51
159.3596758498
  0
LINE
  8
CYAN
 10
-41.34095
 20
587.59155
 11
-42.4074
 21
584.69056
  0
ARC
  8
CYAN
 10
-40.5807196292
 20
583.4548483629
 40
2.2053898583
 50
145.9224584388
 51
239.6030530462
  0
LINE
  8
CYAN
 10
-41.69662
 20
581.55261
 11
-39.80083
 21
581.13809
  0
LINE
  8
CYAN
 10
-39.80083
 20
581.13809
 11
-24.93031
 21
581.13809
  0
ARC
  8
CYAN
 10
-24.1068604513
 20
582.7147293815
 40
1.7787245146
 50
242.4227684336
 51
45.3437127167
  0
ARC
  8
CYAN
 10
-355.6150269834
 20
-47.7362131027
 40
713.9982432639
 50
62.2218510269
 51
63.2380797837
  0
LINE
  8
CYAN
 10
-26.75686
 20
618.0651
 11
-32.68135
 21
613.26939
  0
ARC
  8
CYAN
 10
-31.3895500848
 20
611.7624905931
 40
1.9848155691
 50
130.6050612132
 51
245.6749817485
  0
LINE
  8
CYAN
 10
-32.20712
 20
609.95388
 11
-24.97906
 21
606.28326
  0
ARC
  8
CYAN
 10
-24.6076530589
 20
607.9581985675
 40
1.7156230124
 50
257.4973263896
 51
332.6891442357
  0
LINE
  8
CYAN
 10
-23.08327
 20
607.17104
 11
-19.11385
 21
615.04563
  0
ARC
  8
CYAN
 10
-20.5661613426
 20
615.7380550664
 40
1.6089315425
 50
334.5093825759
 51
55.1751779103
  0
ARC
  8
CYAN
 10
-24.3616847571
 20
609.6531215187
 40
8.7789219333
 50
57.5199362874
 51
87.0678264321
  0
ARC
  8
CYAN
 10
-24.9199478164
 20
614.9237690232
 40
3.6389842918
 50
73.9295915975
 51
120.317217981
  0
LINE
  8
CYAN
 10
-77.51615
 20
608.54443
 11
-79.20309
 21
608.45067
  0
ARC
  8
CYAN
 10
-107.7775430789
 20
662.4334525264
 40
61.0789667402
 50
282.2136217462
 51
297.8934018017
  0
ARC
  8
CYAN
 10
-93.8779267923
 20
599.7670826992
 40
3.1267498109
 50
108.2256579521
 51
151.9332110317
  0
LINE
  8
CYAN
 10
-96.63697
 20
601.23822
 11
-92.98166
 21
597.67888
  0
ARC
  8
CYAN
 10
-91.6861333746
 20
602.0681008489
 40
4.5764231555
 50
253.5554573062
 51
301.0480833859
  0
LINE
  8
CYAN
 10
-89.32581
 20
598.14732
 11
-86.88875
 21
599.27138
  0
ARC
  8
CYAN
 10
-129.7959638088
 20
665.6213122197
 40
79.0148245735
 50
302.8899650463
 51
310.6145688478
  0
LINE
  8
CYAN
 10
-78.3599
 20
605.6407
 11
-77.14109
 21
606.57724
  0
ARC
  8
CYAN
 10
-77.895019348
 20
607.4528465802
 40
1.1554636927
 50
310.7296565158
 51
70.8590142484
  0
LINE
  8
CYAN
 10
-37.83578
 20
614.51296
 11
-32.50351
 21
618.24299
  0
ARC
  8
CYAN
 10
-33.8351260158
 20
619.1311820383
 40
1.6006518392
 50
326.29658865
 51
86.8725881597
  0
ARC
  8
CYAN
 10
-36.2007157709
 20
576.417368424
 40
44.3799207906
 50
86.8315992176
 51
104.581985034
  0
ARC
  8
CYAN
 10
-47.0403103709
 20
618.1119053099
 40
1.2994189315
 50
104.8815859469
 51
263.110146677
  0
LINE
  8
CYAN
 10
-47.19619
 20
616.82187
 11
-40.79803
 21
614.39448
  0
ARC
  8
CYAN
 10
-39.432504452
 20
617.3439502219
 40
3.2502360856
 50
245.1571297865
 51
299.4237040771
  0
LINE
  8
CYAN
 10
-132.23102
 20
590.82703
 11
-132.23102
 21
589.60922
  0
LINE
  8
CYAN
 10
-132.23102
 20
589.60922
 11
-132.69971
 21
588.9536
  0
LINE
  8
CYAN
 10
-132.69971
 20
588.9536
 11
-134.66807
 21
588.67267
  0
LINE
  8
CYAN
 10
-134.66807
 20
588.67267
 11
-142.35374
 21
588.48516
  0
LINE
  8
CYAN
 10
-142.35374
 20
588.48516
 11
-142.26011
 21
592.88764
  0
ARC
  8
CYAN
 10
-136.895184507
 20
583.4509689277
 40
10.8550995607
 50
87.1476533291
 51
119.619046988
  0
ARC
  8
CYAN
 10
-142.2825458207
 20
583.052426488
 40
12.7073849038
 50
37.7210537636
 51
62.1949981985
  0
ARC
  8
CYAN
 10
-13.2498550701
 20
610.892080799
 40
2.8134348864
 50
47.080780474
 51
151.3306039671
  0
LINE
  8
CYAN
 10
-15.71837
 20
612.24184
 11
-19.8127
 21
604.83489
  0
ARC
  8
CYAN
 10
-18.0623209135
 20
603.8673351502
 40
1.9999973335
 50
151.0675541446
 51
229.0488434128
  0
LINE
  8
CYAN
 10
-19.37315
 20
602.3568
 11
-17.59913
 21
600.81733
  0
ARC
  8
CYAN
 10
-15.851353854
 20
602.8313787693
 40
2.6666671899
 50
229.0488047953
 51
288.3043105599
  0
LINE
  8
CYAN
 10
-15.01385
 20
600.29964
 11
-6.47596
 21
603.12402
  0
ARC
  8
CYAN
 10
-7.0509509188
 20
604.8785863975
 40
1.8463796467
 50
288.1445452926
 51
43.2408696075
  0
LINE
  8
CYAN
 10
-5.7059
 20
606.14348
 11
-11.334
 21
612.9524
  0
ARC
  8
CYAN
 10
-13.2450099649
 20
594.6891295226
 40
2.0638928951
 50
106.2509519608
 51
262.1698034387
  0
LINE
  8
CYAN
 10
-13.52619
 20
592.64448
 11
-5.39352
 21
590.30004
  0
ARC
  8
CYAN
 10
-5.0241927296
 20
591.5812000704
 40
1.3333318262
 50
253.9190158456
 51
283.1252083187
  0
LINE
  8
CYAN
 10
-4.72142
 20
590.2827
 11
-2.55842
 21
590.78704
  0
ARC
  8
CYAN
 10
-2.8611877665
 20
592.0855429239
 40
1.333333478
 50
283.1249727724
 51
2.1235986488
  0
LINE
  8
CYAN
 10
-1.52877
 20
592.13495
 11
-1.59884
 21
594.02473
  0
ARC
  8
CYAN
 10
-4.9298832914
 20
593.9011599977
 40
3.3333345099
 50
2.1244979238
 51
10.6344274217
  0
LINE
  8
CYAN
 10
-1.6538
 20
594.5163
 11
-2.26943
 21
597.7953
  0
ARC
  8
CYAN
 10
-4.321813469
 20
596.6891216507
 40
2.3315034729
 50
28.3234486582
 51
100.782646829
  0
LINE
  8
CYAN
 10
-4.758
 20
598.97946
 11
-13.82258
 21
596.67056
  0
LINE
  8
CYAN
 10
-173.73276
 20
671.7314
 11
-173.92223
 21
674.95247
  0
ARC
  8
CYAN
 10
-178.8384680025
 20
673.4021991009
 40
5.1548749702
 50
17.5019824004
 51
114.0292699024
  0
ARC
  8
CYAN
 10
-173.6094663686
 20
663.6401264285
 40
16.2199842945
 50
116.858812021
 51
184.2183616615
  0
ARC
  8
CYAN
 10
-174.5003787139
 20
662.4018080848
 40
15.2851981522
 50
179.8305252129
 51
247.935440359
  0
ARC
  8
CYAN
 10
-179.0098996359
 20
653.7433802231
 40
5.6435022025
 50
257.3865952967
 51
345.6166833315
  0
LINE
  8
CYAN
 10
-173.54329
 20
652.34149
 11
-173.60645
 21
655.43617
  0
ARC
  8
CYAN
 10
-112.5951188305
 20
665.641472918
 40
61.8589584355
 50
178.3372282343
 51
189.4958960373
  0
ARC
  8
CYAN
 10
-155.3513779504
 20
666.552062661
 40
19.097139611
 50
164.2637118519
 51
177.345776822
  0
LINE
  8
CYAN
 10
11.68421
 20
448.02363
 11
8.75244
 21
447.6438
  0
ARC
  8
CYAN
 10
7.1309182731
 20
537.50732519
 40
89.8781535874
 50
221.2206530293
 51
271.0337483402
  0
LINE
  8
CYAN
 10
-60.4734
 20
478.28116
 11
-60.96258
 21
479.69199
  0
ARC
  8
CYAN
 10
-60.0043355824
 20
479.8722564146
 40
0.9750529955
 50
54.7688187396
 51
190.6540535126
  0
LINE
  8
CYAN
 10
-59.44185
 20
480.66871
 11
-57.54162
 21
479.25789
  0
ARC
  8
CYAN
 10
1.0497165815
 20
534.743027511
 40
80.6941460518
 50
223.4402732132
 51
275.1291166872
  0
LINE
  8
CYAN
 10
8.26381
 20
454.372
 11
12.00997
 21
450.73642
  0
ARC
  8
CYAN
 10
10.8179398146
 20
449.5036084563
 40
1.7148645034
 50
300.341557254
 51
45.9635183288
  0
LINE
  8
CYAN
 10
-70.69307
 20
484.3857
 11
-74.00544
 21
486.50159
  0
ARC
  8
CYAN
 10
-170.1892635618
 20
410.8180153866
 40
122.3900787696
 50
38.1979283939
 51
70.5536834925
  0
LINE
  8
CYAN
 10
-129.44273
 20
526.22621
 11
-131.723
 21
527.31146
  0
ARC
  8
CYAN
 10
-129.0294725638
 20
528.0961069934
 40
2.8054876499
 50
160.1763831061
 51
196.2412816295
  0
LINE
  8
CYAN
 10
-131.66871
 20
529.04752
 11
-131.0172
 21
529.37309
  0
LINE
  8
CYAN
 10
-131.0172
 20
529.37309
 11
-129.17127
 21
528.83047
  0
ARC
  8
CYAN
 10
-170.3038314111
 20
400.7212209843
 40
134.5506123792
 50
38.0069769928
 51
72.1995210377
  0
ARC
  8
CYAN
 10
-66.8074057728
 20
483.2572912539
 40
2.5403548478
 50
327.4267071513
 51
7.1108447144
  0
LINE
  8
CYAN
 10
-64.66664
 20
481.88962
 11
-65.91536
 21
481.99815
  0
ARC
  8
CYAN
 10
-35.5729544628
 20
548.6902269335
 40
73.2700122799
 50
241.3587035131
 51
245.5362368117
  0
LINE
  8
CYAN
 10
-26.23776
 20
489.69072
 11
-24.01178
 21
489.47367
  0
LINE
  8
CYAN
 10
-24.01178
 20
489.47367
 11
-19.88502
 21
486.86906
  0
ARC
  8
CYAN
 10
-20.9386000857
 20
484.9683184586
 40
2.1732117716
 50
292.6358433646
 51
61.0004186395
  0
LINE
  8
CYAN
 10
-20.10219
 20
482.96251
 11
-27.3236
 21
481.66021
  0
ARC
  8
CYAN
 10
-28.5099992632
 20
548.8520997575
 40
67.2023629971
 50
232.5484577138
 51
271.0115596988
  0
LINE
  8
CYAN
 10
-69.3751
 20
495.5023
 11
-71.92683
 21
497.83524
  0
ARC
  8
CYAN
 10
-70.7313904488
 20
498.3194195922
 40
1.2897695911
 50
62.4673853416
 51
202.0490416361
  0
ARC
  8
CYAN
 10
-36.5891046809
 20
546.6720810421
 40
57.9139520574
 50
234.6028845937
 51
280.2961807854
  0
LINE
  8
CYAN
 10
-26.29426
 20
468.78351
 11
-25.20787
 21
466.55909
  0
ARC
  8
CYAN
 10
-27.1437517694
 20
466.1770886133
 40
1.9732114141
 50
245.0111151967
 51
11.1625857723
  0
ARC
  8
CYAN
 10
8.7081236046
 20
549.1690240289
 40
92.3771820668
 50
228.979394314
 51
246.6013241933
  0
LINE
  8
CYAN
 10
-51.92183
 20
479.47288
 11
-51.97612
 21
480.77518
  0
LINE
  8
CYAN
 10
-51.97612
 20
480.77518
 11
-51.10745
 21
481.42633
  0
LINE
  8
CYAN
 10
-51.10745
 20
481.42633
 11
-49.42383
 21
481.04649
  0
ARC
  8
CYAN
 10
-19.3614366187
 20
582.4447749928
 40
105.7608608857
 50
253.4860515021
 51
262.3388675168
  0
ARC
  8
CYAN
 10
-34.9278864333
 20
472.2969772538
 40
5.5291522858
 50
30.1965093315
 51
74.6133682308
  0
LINE
  8
CYAN
 10
-30.14901
 20
475.07796
 11
-26.29426
 21
468.78351
  0
LINE
  8
CYAN
 10
-7.37344
 20
469.99892
 11
-4.33308
 21
470.05318
  0
LINE
  8
CYAN
 10
-4.33308
 20
470.05318
 11
4.02846
 21
461.42579
  0
ARC
  8
CYAN
 10
1.5465471302
 20
460.817143666
 40
2.5554533557
 50
297.4728514525
 51
13.7788808007
  0
ARC
  8
CYAN
 10
-1.9237565971
 20
516.9494580509
 40
58.5843580361
 50
255.9266759519
 51
274.5517323258
  0
LINE
  8
CYAN
 10
-16.16933
 20
460.12349
 11
-17.47234
 21
461.42579
  0
LINE
  8
CYAN
 10
-17.47234
 20
461.42579
 11
-16.82084
 21
464.08465
  0
LINE
  8
CYAN
 10
-16.82084
 20
464.08465
 11
-7.37344
 21
469.99892
  0
LINE
  8
CYAN
 10
12.68751
 20
432.26072
 11
8.99564
 21
432.41458
  0
LINE
  8
CYAN
 10
8.99564
 20
432.41458
 11
0.99586
 21
434.87425
  0
LINE
  8
CYAN
 10
0.99586
 20
434.87425
 11
0.07289
 21
436.71917
  0
LINE
  8
CYAN
 10
0.07289
 20
436.71917
 11
-0.38859
 21
441.79238
  0
LINE
  8
CYAN
 10
-0.38859
 20
441.79238
 11
0.53438
 21
443.02221
  0
LINE
  8
CYAN
 10
0.53438
 20
443.02221
 11
2.68833
 21
443.6373
  0
LINE
  8
CYAN
 10
2.68833
 20
443.6373
 11
14.37999
 21
442.8687
  0
LINE
  8
CYAN
 10
14.37999
 20
442.8687
 11
16.22592
 21
441.79238
  0
ARC
  8
CYAN
 10
9.7794106935
 20
438.7628918682
 40
7.1228702487
 50
294.0966022923
 51
25.170821905
  0
LINE
  8
CYAN
 10
-53.89851
 20
500.40104
 11
-53.89851
 21
498.82742
  0
ARC
  8
CYAN
 10
-55.6613135361
 20
499.2021975178
 40
1.8022026786
 50
262.1367961097
 51
347.9974481739
  0
ARC
  8
CYAN
 10
-44.603269578
 20
541.3302898188
 40
45.3450800309
 50
237.9484645326
 51
255.563812428
  0
ARC
  8
CYAN
 10
-67.2365596712
 20
504.6335088624
 40
2.2497709707
 50
161.7268212433
 51
230.5168300011
  0
LINE
  8
CYAN
 10
-69.37288
 20
505.33892
 11
-61.82572
 21
510.65631
  0
LINE
  8
CYAN
 10
-61.82572
 20
510.65631
 11
-59.92549
 21
511.03614
  0
LINE
  8
CYAN
 10
-59.92549
 20
511.03614
 11
-54.71289
 21
509.62532
  0
LINE
  8
CYAN
 10
-54.71289
 20
509.62532
 11
-52.75837
 21
508.59433
  0
LINE
  8
CYAN
 10
-52.75837
 20
508.59433
 11
-52.59549
 21
506.47809
  0
LINE
  8
CYAN
 10
-52.59549
 20
506.47809
 11
-53.89851
 21
500.40104
  0
LINE
  8
CYAN
 10
-49.01221
 20
495.13792
 11
-46.35134
 21
493.67283
  0
ARC
  8
CYAN
 10
-37.0265896812
 20
528.7380799722
 40
36.2839182575
 50
255.1082271111
 51
274.9149758131
  0
LINE
  8
CYAN
 10
-33.91788
 20
492.58758
 11
-32.01766
 21
493.29299
  0
LINE
  8
CYAN
 10
-32.01766
 20
493.29299
 11
-31.42044
 21
494.32398
  0
LINE
  8
CYAN
 10
-31.42044
 20
494.32398
 11
-31.52903
 21
495.35497
  0
LINE
  8
CYAN
 10
-31.52903
 20
495.35497
 11
-46.56906
 21
505.33892
  0
LINE
  8
CYAN
 10
-46.56906
 20
505.33892
 11
-48.03495
 21
505.61024
  0
LINE
  8
CYAN
 10
-48.03495
 20
505.61024
 11
-48.74075
 21
504.7963
  0
LINE
  8
CYAN
 10
-48.74075
 20
504.7963
 11
-49.93518
 21
496.76579
  0
LINE
  8
CYAN
 10
-49.93518
 20
496.76579
 11
-49.60943
 21
495.40923
  0
LINE
  8
CYAN
 10
-49.60943
 20
495.40923
 11
-49.01221
 21
495.13792
  0
LINE
  8
CYAN
 10
-9.17949
 20
474.42475
 11
-10.59109
 21
472.9054
  0
LINE
  8
CYAN
 10
-10.59109
 20
472.9054
 11
-17.32387
 21
468.67292
  0
ARC
  8
CYAN
 10
-19.3323389508
 20
471.1773897879
 40
3.2103452221
 50
208.4166764927
 51
308.7280004987
  0
LINE
  8
CYAN
 10
-22.15587
 20
469.64965
 11
-26.11975
 21
475.67244
  0
LINE
  8
CYAN
 10
-26.11975
 20
475.67244
 11
-25.73971
 21
477.35458
  0
LINE
  8
CYAN
 10
-25.73971
 20
477.35458
 11
-15.36935
 21
480.44754
  0
LINE
  8
CYAN
 10
-15.36935
 20
480.44754
 11
-13.30569
 21
479.95918
  0
LINE
  8
CYAN
 10
-13.30569
 20
479.95918
 11
-11.94839
 21
478.54836
  0
LINE
  8
CYAN
 10
-11.94839
 20
478.54836
 11
-9.72241
 21
476.75769
  0
ARC
  8
CYAN
 10
-10.7388005607
 20
475.2915124094
 40
1.7840197586
 50
330.9319548092
 51
55.2693431519
  0
LINE
  8
CYAN
 10
-74.78492
 20
506.61718
 11
-77.49953
 21
506.83423
  0
LINE
  8
CYAN
 10
-77.49953
 20
506.83423
 11
-83.36364
 21
509.92685
  0
LINE
  8
CYAN
 10
-83.36364
 20
509.92685
 11
-84.23231
 21
511.66325
  0
LINE
  8
CYAN
 10
-84.23231
 20
511.66325
 11
-82.44067
 21
518.12015
  0
LINE
  8
CYAN
 10
-82.44067
 20
518.12015
 11
-80.81191
 21
518.60851
  0
LINE
  8
CYAN
 10
-80.81191
 20
518.60851
 11
-68.43219
 21
514.81048
  0
ARC
  8
CYAN
 10
-69.1021819787
 20
512.8731642133
 40
2.0498979753
 50
339.3909005335
 51
70.9228135184
  0
ARC
  8
CYAN
 10
-94.1812218127
 20
537.4267107482
 40
36.9825474416
 50
308.3095443859
 51
316.8875097597
  0
LINE
  8
CYAN
 10
-71.25538
 20
508.4075
 11
-74.78492
 21
506.61718
  0
LINE
  8
CYAN
 10
-90.63934
 20
514.0508
 11
-102.63847
 21
520.77901
  0
LINE
  8
CYAN
 10
-102.63847
 20
520.77901
 11
-103.61573
 21
521.59295
  0
LINE
  8
CYAN
 10
-103.61573
 20
521.59295
 11
-103.39856
 21
522.78672
  0
LINE
  8
CYAN
 10
-103.39856
 20
522.78672
 11
-99.86957
 21
524.79409
  0
LINE
  8
CYAN
 10
-99.86957
 20
524.79409
 11
-97.37213
 21
524.79409
  0
LINE
  8
CYAN
 10
-97.37213
 20
524.79409
 11
-87.76131
 21
521.26737
  0
ARC
  8
CYAN
 10
-89.5036367771
 20
518.6371741771
 40
3.1549378226
 50
1.4505716785
 51
56.4782209353
  0
LINE
  8
CYAN
 10
-86.34971
 20
518.71704
 11
-87.32697
 21
515.08179
  0
LINE
  8
CYAN
 10
-87.32697
 20
515.08179
 11
-87.92418
 21
513.88802
  0
ARC
  8
CYAN
 10
-89.1367312625
 20
516.3884800757
 40
2.778953248
 50
237.2679925738
 51
295.8701967802
  0
LINE
  8
CYAN
 10
-4.38848
 20
438.40543
 11
-5.74579
 21
437.75428
  0
ARC
  8
CYAN
 10
17.7623604692
 20
507.1456945537
 40
73.265282039
 50
233.746671523
 51
251.2848498589
  0
LINE
  8
CYAN
 10
-25.56354
 20
448.06382
 11
-25.29208
 21
448.98594
  0
LINE
  8
CYAN
 10
-25.29208
 20
448.98594
 11
-23.44614
 21
449.31151
  0
ARC
  8
CYAN
 10
1.8323704097
 20
510.8338373196
 40
66.5131554458
 50
247.6630472672
 51
263.4578125331
  0
ARC
  8
CYAN
 10
-7.57306037
 20
441.7908704886
 40
3.4810728654
 50
15.9264857959
 51
58.3374205835
  0
LINE
  8
CYAN
 10
-4.22561
 20
442.74609
 11
-4.38848
 21
438.40543
  0
LINE
  8
CYAN
 10
-88.75186
 20
494.3597
 11
-87.68707
 21
494.76495
  0
LINE
  8
CYAN
 10
-87.68707
 20
494.76495
 11
-87.43389
 21
495.77773
  0
LINE
  8
CYAN
 10
-87.43389
 20
495.77773
 11
-88.5491
 21
497.34791
  0
ARC
  8
CYAN
 10
-137.9534750035
 20
447.6713012213
 40
70.0610999716
 50
45.1574248308
 51
61.2558458044
  0
ARC
  8
CYAN
 10
-105.2719702019
 20
506.4064698354
 40
2.8761894457
 50
69.4241107216
 51
188.9539101837
  0
LINE
  8
CYAN
 10
-108.11311
 20
505.95882
 11
-88.75186
 21
494.3597
  0
LINE
  8
CYAN
 10
-125.84892
 20
531.27091
 11
-112.49194
 21
525.13959
  0
ARC
  8
CYAN
 10
-109.4234655975
 20
528.9557306092
 40
4.896781015
 50
231.1980068338
 51
324.5596889367
  0
ARC
  8
CYAN
 10
-106.412909939
 20
526.8932198389
 40
1.2497727317
 50
321.5639394497
 51
79.9143707495
  0
ARC
  8
CYAN
 10
12.349702981
 20
886.7795225203
 40
377.7388446331
 50
248.7871800742
 51
251.7101276667
  0
LINE
  8
CYAN
 10
-124.32874
 20
534.63518
 11
-125.57746
 21
534.30961
  0
LINE
  8
CYAN
 10
-125.57746
 20
534.30961
 11
-126.22897
 21
533.6042
  0
ARC
  8
CYAN
 10
-121.5669097208
 20
532.3248558388
 40
4.8344107738
 50
164.6548589711
 51
189.316532507
  0
LINE
  8
CYAN
 10
-126.33755
 20
531.54222
 11
-125.84892
 21
531.27091
  0
LINE
  8
CYAN
 10
-127.54084
 20
517.42401
 11
-129.36572
 21
520.00732
  0
LINE
  8
CYAN
 10
-129.36572
 20
520.00732
 11
-129.36572
 21
521.17224
  0
LINE
  8
CYAN
 10
-129.36572
 20
521.17224
 11
-128.70702
 21
521.62798
  0
LINE
  8
CYAN
 10
-128.70702
 20
521.62798
 11
-127.28766
 21
521.37487
  0
LINE
  8
CYAN
 10
-127.28766
 20
521.37487
 11
-123.84122
 21
519.80469
  0
LINE
  8
CYAN
 10
-123.84122
 20
519.80469
 11
-110.71359
 21
512.71347
  0
ARC
  8
CYAN
 10
-112.814241326
 20
511.4259474855
 40
2.4638283664
 50
272.8841434207
 51
31.5047929382
  0
ARC
  8
CYAN
 10
-79.5799018943
 20
584.360711079
 40
82.3454524264
 50
234.3779543233
 51
246.2910356509
  0
LINE
  8
CYAN
 10
-69.06707
 20
531.90214
 11
-61.17984
 21
529.03599
  0
LINE
  8
CYAN
 10
-61.17984
 20
529.03599
 11
-57.33664
 21
529.1193
  0
ARC
  8
CYAN
 10
-82.2803751798
 20
627.1282723217
 40
101.1333208209
 50
284.2788978449
 51
307.1565681791
  0
ARC
  8
CYAN
 10
-21.977540761
 20
547.8181507605
 40
1.5097462967
 50
301.1605831007
 51
148.8767304442
  0
ARC
  8
CYAN
 10
-74.4399935751
 20
635.1928759092
 40
100.5830777014
 50
272.960625897
 51
300.5795336457
  0
ARC
  8
CYAN
 10
-68.370349906
 20
533.3722584972
 40
1.6268581024
 50
122.5187879276
 51
244.6427422108
  0
LINE
  8
CYAN
 10
-80.70277
 20
562.60235
 11
-76.95384
 21
561.10361
  0
ARC
  8
CYAN
 10
-33.6709029715
 20
647.2947208147
 40
96.4485366467
 50
243.3353855434
 51
265.9994716584
  0
ARC
  8
CYAN
 10
-41.3573996311
 20
549.2601125193
 40
2.0575499445
 50
281.0791736524
 51
62.2602415279
  0
ARC
  8
CYAN
 10
-28.0389032559
 20
694.8370736864
 40
148.1608390326
 50
243.9222783386
 51
264.9961030318
  0
ARC
  8
CYAN
 10
-91.7743713421
 20
562.4507778541
 40
1.5566047105
 50
89.5762846367
 51
206.3768517227
  0
ARC
  8
CYAN
 10
-89.5098289138
 20
537.5081711323
 40
26.5947757981
 50
70.6609551753
 51
94.8597546335
  0
LINE
  8
CYAN
 10
-83.70213
 20
548.6459
 11
-73.48579
 21
540.87159
  0
ARC
  8
CYAN
 10
-68.9449786225
 20
546.0921935249
 40
6.9190800783
 50
228.9836886598
 51
266.5462786455
  0
ARC
  8
CYAN
 10
-67.8832517788
 20
619.4988310227
 40
80.3267597506
 50
268.9453158885
 51
285.2365940994
  0
ARC
  8
CYAN
 10
-47.2242398817
 20
543.1863329581
 40
1.2733410737
 50
290.7580142379
 51
64.6622901276
  0
ARC
  8
CYAN
 10
-41.7446561556
 20
653.8962770352
 40
109.6701716591
 50
248.4045563616
 51
267.421082461
  0
ARC
  8
CYAN
 10
-82.4552260039
 20
550.0662882225
 40
1.8900455756
 50
79.4394869961
 51
228.7213518884
  0
LINE
  8
CYAN
 10
3.3066
 20
561.73141
 11
-7.95016
 21
562.08652
  0
LINE
  8
CYAN
 10
-7.95016
 20
562.08652
 11
-15.60102
 21
560.42436
  0
LINE
  8
CYAN
 10
-15.60102
 20
560.42436
 11
-34.11289
 21
550.17933
  0
ARC
  8
CYAN
 10
-33.6725100874
 20
549.0648403787
 40
1.1983411799
 50
111.5609798794
 51
274.4304281792
  0
ARC
  8
CYAN
 10
10.4091426057
 20
470.8381333673
 40
88.7071597478
 50
104.8556266166
 51
119.7285213965
  0
ARC
  8
CYAN
 10
4.2986528168
 20
499.4444444949
 40
59.5075183917
 50
90.612741811
 51
106.2306476354
  0
ARC
  8
CYAN
 10
2.5796295168
 20
560.224343781
 40
1.6732407693
 50
310.3182066359
 51
64.2485185755
  0
LINE
  8
CYAN
 10
-34.11289
 20
554.85655
 11
-37.66792
 21
554.73807
  0
ARC
  8
CYAN
 10
-37.98338894
 20
558.3120293336
 40
3.5878553441
 50
200.6401376289
 51
275.0443534074
  0
LINE
  8
CYAN
 10
-41.34095
 20
557.04732
 11
-42.4074
 21
559.9483
  0
ARC
  8
CYAN
 10
-40.5807196292
 20
561.1840116371
 40
2.2053898583
 50
120.3969469538
 51
214.0775415612
  0
LINE
  8
CYAN
 10
-41.69662
 20
563.08625
 11
-39.80083
 21
563.50078
  0
LINE
  8
CYAN
 10
-39.80083
 20
563.50078
 11
-24.93031
 21
563.50078
  0
ARC
  8
CYAN
 10
-24.1068583313
 20
561.9241377131
 40
1.7787280712
 50
314.656078086
 51
117.5772487692
  0
ARC
  8
CYAN
 10
-355.6150269834
 20
1192.3750731027
 40
713.9982432639
 50
296.7619202163
 51
297.7781489731
  0
LINE
  8
CYAN
 10
-26.75686
 20
526.57377
 11
-32.68135
 21
531.36947
  0
ARC
  8
CYAN
 10
-31.3895500848
 20
532.8763694069
 40
1.9848155691
 50
114.3250182515
 51
229.3949387868
  0
LINE
  8
CYAN
 10
-32.20712
 20
534.68498
 11
-24.97906
 21
538.3556
  0
ARC
  8
CYAN
 10
-24.6076530589
 20
536.6806614325
 40
1.7156230124
 50
27.3108557643
 51
102.5026736104
  0
LINE
  8
CYAN
 10
-23.08327
 20
537.46782
 11
-19.11385
 21
529.59323
  0
ARC
  8
CYAN
 10
-20.5661613426
 20
528.9008049336
 40
1.6089315425
 50
304.8248220897
 51
25.4906174241
  0
ARC
  8
CYAN
 10
-24.3616847571
 20
534.9857384813
 40
8.7789219333
 50
272.9321735679
 51
302.4800637126
  0
ARC
  8
CYAN
 10
-24.9199369418
 20
529.7150896178
 40
3.6389799756
 50
239.6825439331
 51
286.0702497955
  0
LINE
  8
CYAN
 10
-77.51615
 20
536.09443
 11
-79.20309
 21
536.18819
  0
ARC
  8
CYAN
 10
-107.7775430789
 20
482.2054074736
 40
61.0789667402
 50
62.1065981983
 51
77.7863782538
  0
ARC
  8
CYAN
 10
-93.8779267923
 20
544.8717773008
 40
3.1267498109
 50
208.0667889683
 51
251.7743420479
  0
LINE
  8
CYAN
 10
-96.63697
 20
543.40064
 11
-92.98166
 21
546.95998
  0
ARC
  8
CYAN
 10
-91.6861333746
 20
542.5707591511
 40
4.5764231555
 50
58.9519166141
 51
106.4445426938
  0
LINE
  8
CYAN
 10
-89.32581
 20
546.49154
 11
-86.88875
 21
545.36748
  0
ARC
  8
CYAN
 10
-129.7959638088
 20
479.0175477803
 40
79.0148245735
 50
49.3854311522
 51
57.1100349537
  0
LINE
  8
CYAN
 10
-78.3599
 20
538.99816
 11
-77.14109
 21
538.06162
  0
ARC
  8
CYAN
 10
-77.895019348
 20
537.1860134198
 40
1.1554636927
 50
289.1409857516
 51
49.2703434842
  0
LINE
  8
CYAN
 10
-32.50351
 20
526.39587
 11
-37.83578
 21
530.1259
  0
ARC
  8
CYAN
 10
-39.432504452
 20
527.2949097781
 40
3.2502360856
 50
60.5762959229
 51
114.8428702135
  0
LINE
  8
CYAN
 10
-40.79803
 20
530.24438
 11
-47.19619
 21
527.817
  0
ARC
  8
CYAN
 10
-47.0403100187
 20
526.5269597326
 40
1.2994238954
 50
96.8898425202
 51
255.118456145
  0
ARC
  8
CYAN
 10
-36.200715771
 20
568.221491576
 40
44.3799207906
 50
255.418014966
 51
273.1684007824
  0
ARC
  8
CYAN
 10
-33.8351260158
 20
525.5076779617
 40
1.6006518392
 50
273.1274118403
 51
33.70341135
  0
LINE
  8
CYAN
 10
-132.23102
 20
553.81183
 11
-132.23102
 21
555.02964
  0
LINE
  8
CYAN
 10
-132.23102
 20
555.02964
 11
-132.69971
 21
555.68526
  0
LINE
  8
CYAN
 10
-132.69971
 20
555.68526
 11
-134.66807
 21
555.96619
  0
LINE
  8
CYAN
 10
-134.66807
 20
555.96619
 11
-142.35374
 21
556.1537
  0
LINE
  8
CYAN
 10
-142.35374
 20
556.1537
 11
-142.26011
 21
551.75123
  0
ARC
  8
CYAN
 10
-136.8951693827
 20
561.1878874738
 40
10.855095214
 50
240.3808481394
 51
272.8522678851
  0
ARC
  8
CYAN
 10
-142.2825458207
 20
561.586433512
 40
12.7073849038
 50
297.8050018015
 51
322.2789462364
  0
ARC
  8
CYAN
 10
-13.2498504911
 20
533.7467884589
 40
2.8134385479
 50
208.6693380349
 51
312.9190228495
  0
LINE
  8
CYAN
 10
-11.334
 20
531.68646
 11
-5.7059
 21
538.49538
  0
ARC
  8
CYAN
 10
-7.0509509188
 20
539.7602736025
 40
1.8463796467
 50
316.7591303925
 51
71.8554547074
  0
LINE
  8
CYAN
 10
-6.47596
 20
541.51484
 11
-15.01385
 21
544.33922
  0
ARC
  8
CYAN
 10
-15.8513613442
 20
541.8074797308
 40
2.6666709662
 50
71.6955467718
 51
130.9509117147
  0
LINE
  8
CYAN
 10
-17.59913
 20
543.82154
 11
-19.37315
 21
542.28207
  0
ARC
  8
CYAN
 10
-18.0623198653
 20
540.7715307595
 40
2.0000011098
 50
130.9511024655
 51
208.9325794963
  0
LINE
  8
CYAN
 10
-19.8127
 20
539.80397
 11
-15.71837
 21
532.39703
  0
ARC
  8
CYAN
 10
-13.2450096045
 20
549.9497353724
 40
2.0638880949
 50
97.8302249852
 51
253.748998775
  0
LINE
  8
CYAN
 10
-13.82258
 20
547.96831
 11
-4.758
 21
545.6594
  0
ARC
  8
CYAN
 10
-4.321813469
 20
547.9497383493
 40
2.3315034729
 50
259.217353171
 51
331.6765513418
  0
LINE
  8
CYAN
 10
-2.26943
 20
546.84356
 11
-1.6538
 21
550.12256
  0
ARC
  8
CYAN
 10
-4.9298832914
 20
550.7377000023
 40
3.3333345099
 50
349.3655725783
 51
357.8755020762
  0
LINE
  8
CYAN
 10
-1.59884
 20
550.61413
 11
-1.52877
 21
552.50391
  0
ARC
  8
CYAN
 10
-2.8611877665
 20
552.5533170761
 40
1.333333478
 50
357.8764013512
 51
76.8750272276
  0
LINE
  8
CYAN
 10
-2.55842
 20
553.85182
 11
-4.72142
 21
554.35616
  0
ARC
  8
CYAN
 10
-5.0241927296
 20
553.0576599296
 40
1.3333318262
 50
76.8747916813
 51
106.0809841544
  0
LINE
  8
CYAN
 10
-5.39352
 20
554.33882
 11
-13.52619
 21
551.99438
  0
ARC
  8
CYAN
 10
-88.7380788174
 20
667.0903985101
 40
7.2390617549
 50
199.5326656981
 51
237.3488185543
  0
LINE
  8
CYAN
 10
-92.64372
 20
660.99532
 11
-90.33066
 21
660.75194
  0
LINE
  8
CYAN
 10
-90.33066
 20
660.75194
 11
-90.20584
 21
669.10517
  0
LINE
  8
CYAN
 10
-90.20584
 20
669.10517
 11
-88.20561
 21
669.10517
  0
LINE
  8
CYAN
 10
-88.20561
 20
669.10517
 11
-88.33248
 21
660.61514
  0
LINE
  8
CYAN
 10
-88.33248
 20
660.61514
 11
-85.92368
 21
660.61514
  0
ARC
  8
CYAN
 10
-86.0027012688
 20
664.4920989944
 40
3.8777642276
 50
271.1676570167
 51
345.6323644213
  0
LINE
  8
CYAN
 10
-82.24622
 20
663.52986
 11
-81.35871
 21
668.97844
  0
ARC
  8
CYAN
 10
-86.4424295698
 20
674.9381321497
 40
7.8333986994
 50
310.4647469529
 51
26.9031690901
  0
LINE
  8
CYAN
 10
-79.45682
 20
678.48262
 11
-85.03562
 21
681.90391
  0
ARC
  8
CYAN
 10
-63.4609792142
 20
685.8063549296
 40
21.9247394845
 50
151.6334517244
 51
190.252865626
  0
LINE
  8
CYAN
 10
-82.75313
 20
696.22303
 11
-80.0906
 21
696.34975
  0
ARC
  8
CYAN
 10
-96.0068061984
 20
648.0302622353
 40
50.8733576403
 50
49.5078444267
 51
71.7683663222
  0
ARC
  8
CYAN
 10
-59.73907
 20
693.21143
 40
7.2528787238
 50
243.5246130088
 51
296.4753869912
  0
ARC
  8
CYAN
 10
-73.6546728963
 20
737.9215748199
 40
53.9979031123
 50
288.5170604143
 51
319.7968420612
  0
LINE
  8
CYAN
 10
-32.41321
 20
703.06594
 11
-31.01824
 21
705.85359
  0
ARC
  8
CYAN
 10
-69.4354700533
 20
711.6194989183
 40
38.8475130558
 50
351.4643854996
 51
2.8980523964
  0
LINE
  8
CYAN
 10
-30.63764
 20
713.58359
 11
-31.27197
 21
714.85086
  0
LINE
  8
CYAN
 10
-31.27197
 20
714.85086
 11
-32.79326
 21
715.10432
  0
LINE
  8
CYAN
 10
-32.79326
 20
715.10432
 11
-33.68132
 21
710.54249
  0
LINE
  8
CYAN
 10
-33.68132
 20
710.54249
 11
-35.32948
 21
705.34703
  0
ARC
  8
CYAN
 10
-68.4026369609
 20
735.9960660356
 40
45.0909871401
 50
282.1471632921
 51
317.1785966303
  0
ARC
  8
CYAN
 10
-49.4435821568
 20
714.040471397
 40
24.0675948274
 50
227.3108647441
 51
246.8268728968
  0
ARC
  8
CYAN
 10
-105.8148681845
 20
636.7590191124
 40
71.8003862671
 50
56.0936025739
 51
71.7986220482
  0
ARC
  8
CYAN
 10
-84.1693028683
 20
700.9289086077
 40
4.1129269626
 50
79.041728171
 51
152.744054411
  0
ARC
  8
CYAN
 10
-3.2784964065
 20
664.296184752
 40
92.9070149299
 50
155.5078654152
 51
177.1112282723
  0
LINE
  8
CYAN
 10
-96.06745
 20
668.97844
 11
-95.56054
 21
664.67006
  0
ARC
  8
CYAN
 10
13.2541401092
 20
608.7450600063
 40
7.8769846134
 50
253.1063598107
 51
293.5468021011
  0
LINE
  8
CYAN
 10
16.40098
 20
601.52396
 11
17.5389
 21
602.66107
  0
LINE
  8
CYAN
 10
17.5389
 20
602.66107
 11
11.84986
 21
608.47265
  0
LINE
  8
CYAN
 10
11.84986
 20
608.47265
 11
13.29769
 21
609.85268
  0
LINE
  8
CYAN
 10
13.29769
 20
609.85268
 11
18.76737
 21
604.26519
  0
LINE
  8
CYAN
 10
18.76737
 20
604.26519
 11
20.76264
 21
606.0092
  0
LINE
  8
CYAN
 10
20.76264
 20
606.0092
 11
21.20529
 21
608.78861
  0
ARC
  8
CYAN
 10
9.0655316163
 20
603.8961278791
 40
13.0885489997
 50
21.9500823439
 51
52.6720418589
  0
LINE
  8
CYAN
 10
17.00212
 20
614.30385
 11
16.37882
 21
618.45146
  0
ARC
  8
CYAN
 10
8.8943416747
 20
612.4255889742
 40
9.6087739812
 50
38.8380872824
 51
78.1864642517
  0
LINE
  8
CYAN
 10
10.86152
 20
621.83084
 11
5.34477
 21
620.2301
  0
LINE
  8
CYAN
 10
5.34477
 20
620.2301
 11
3.2091
 21
620.5859
  0
LINE
  8
CYAN
 10
3.2091
 20
620.5859
 11
-4.08821
 21
628.58927
  0
ARC
  8
CYAN
 10
0.35918
 20
630.456865
 40
4.8236074567
 50
157.2209760893
 51
202.7790239107
  0
ARC
  8
CYAN
 10
17.6873382143
 20
601.0132830991
 40
38.1387506212
 50
96.5249323927
 51
124.8169169562
  0
LINE
  8
CYAN
 10
13.35342
 20
638.90499
 11
17.2691
 21
640.68363
  0
LINE
  8
CYAN
 10
17.2691
 20
640.68363
 11
18.5145
 21
641.92858
  0
ARC
  8
CYAN
 10
-75736.9870484252
 20
22306.9298480318
 40
78792.5649715585
 50
344.0402201086
 51
344.0496362471
  0
ARC
  8
CYAN
 10
-36.9044098651
 20
663.5830022452
 40
59.6922669993
 50
351.1298656368
 51
10.8625861545
  0
LINE
  8
CYAN
 10
21.71829
 20
674.83226
 11
19.58262
 21
676.9667
  0
ARC
  8
CYAN
 10
8.3315443872
 20
670.7547854476
 40
12.8520264882
 50
28.9038526966
 51
58.9780876565
  0
LINE
  8
CYAN
 10
14.95504
 20
681.76859
 11
14.06531
 21
681.59104
  0
LINE
  8
CYAN
 10
14.06531
 20
681.59104
 11
12.81936
 21
680.87944
  0
ARC
  8
CYAN
 10
131.0110215605
 20
755.9341150568
 40
140.0088322583
 50
212.4165733479
 51
215.0520065387
  0
ARC
  8
CYAN
 10
4.6293018942
 20
667.0731055248
 40
14.4866958253
 50
16.1483809027
 51
35.6882656908
  0
ARC
  8
CYAN
 10
-37.0431303259
 20
668.3129682421
 40
55.6574858612
 50
336.119989057
 51
2.872567718
  0
LINE
  8
CYAN
 10
13.84981
 20
645.78156
 11
11.76399
 21
644.77083
  0
ARC
  8
CYAN
 10
24.9059589562
 20
574.8339257733
 40
71.1609578411
 50
100.6424461801
 51
121.2437344037
  0
ARC
  8
CYAN
 10
-7.4171211641
 20
632.3655737699
 40
5.6555518255
 50
144.1940318454
 51
194.6385547449
  0
ARC
  8
CYAN
 10
60.3970241388
 20
665.3070773046
 40
80.9456907938
 50
205.1263144349
 51
232.3613215723
  0
ARC
  8
CYAN
 10
-128.2464311331
 20
517.8717043324
 40
83.7908011663
 50
97.3585555982
 51
103.2412923484
  0
LINE
  8
CYAN
 10
-147.43892
 20
599.43485
 11
-147.92786
 21
599.5047
  0
ARC
  8
CYAN
 10
-147.4564429474
 20
602.8045320565
 40
3.3333355125
 50
208.3206366764
 51
261.8696854043
  0
LINE
  8
CYAN
 10
-150.3908
 20
601.22318
 11
-150.66986
 21
601.74101
  0
ARC
  8
CYAN
 10
-136.9637996313
 20
604.973310688
 40
14.0820402843
 50
178.6224480073
 51
193.2696114093
  0
LINE
  8
CYAN
 10
-151.04177
 20
605.31185
 11
-143.63627
 21
606.36929
  0
LINE
  8
CYAN
 10
-143.63627
 20
606.36929
 11
-143.90107
 21
608.35176
  0
LINE
  8
CYAN
 10
-143.90107
 20
608.35176
 11
-151.43881
 21
607.27544
  0
LINE
  8
CYAN
 10
-151.43881
 20
607.27544
 11
-152.6698
 21
612.19513
  0
LINE
  8
CYAN
 10
-152.6698
 20
612.19513
 11
-152.82326
 21
615.73112
  0
ARC
  8
CYAN
 10
-148.5939256202
 20
615.344904377
 40
4.2469320461
 50
95.1802756932
 51
174.7823182135
  0
ARC
  8
CYAN
 10
-150.4060466581
 20
606.4027058498
 40
13.249037177
 50
57.4909024009
 51
83.8096604087
  0
ARC
  8
CYAN
 10
-141.3407945173
 20
625.6775657592
 40
8.332009389
 50
256.5020754827
 51
9.8810090584
  0
ARC
  8
CYAN
 10
-114.3035312688
 20
613.882098997
 40
23.0094127074
 50
111.7375065158
 51
144.9160446173
  0
LINE
  8
CYAN
 10
-122.82518
 20
635.25532
 11
-63.66777
 21
669.4565
  0
ARC
  8
CYAN
 10
87.4144439158
 20
529.7908616578
 40
205.7482099441
 50
122.6601012751
 51
137.2486347511
  0
ARC
  8
CYAN
 10
40.2206389839
 20
603.8041049657
 40
117.9692904796
 50
106.3587057235
 51
122.7619572122
  0
ARC
  8
CYAN
 10
10.771429909
 20
705.7811701174
 40
11.835302671
 50
326.9009354852
 51
108.6095006424
  0
ARC
  8
CYAN
 10
-149.8640351461
 20
807.3201582522
 40
201.8708366364
 50
314.0658726492
 51
327.6556818733
  0
ARC
  8
CYAN
 10
-129.8242852644
 20
784.9548361941
 40
171.8669823296
 50
297.2791507621
 51
314.4510441608
  0
ARC
  8
CYAN
 10
-1419.9235263645
 20
4367.4905497798
 40
3978.2138156827
 50
289.0081367617
 51
290.126359955
  0
LINE
  8
CYAN
 10
-124.20963
 20
606.19946
 11
-135.74782
 21
602.04838
  0
LINE
  8
CYAN
 10
-135.74782
 20
602.04838
 11
-138.97821
 21
600.97241
  0
ARC
  8
CYAN
 10
-215.7028399609
 20
697.8962978545
 40
24.5997658183
 50
149.9488358069
 51
212.1375026098
  0
ARC
  8
CYAN
 10
-215.1116224952
 20
698.9908810611
 40
25.6899595289
 50
213.5033760204
 51
280.4212315261
  0
ARC
  8
CYAN
 10
-215.5492664029
 20
701.3888651937
 40
28.1275505435
 50
280.4144457586
 51
333.372753024
  0
ARC
  8
CYAN
 10
-203.2370594147
 20
691.4701334418
 40
13.1105961114
 50
348.1708526204
 51
6.8426928294
  0
ARC
  8
CYAN
 10
-220.942418298
 20
678.1461294408
 40
34.1389909645
 50
25.8516475776
 51
56.7761039651
  0
ARC
  8
CYAN
 10
-157.5018362246
 20
742.1390745503
 40
57.0688865752
 50
211.0431887982
 51
218.3823774425
  0
ARC
  8
CYAN
 10
-212.7679316139
 20
704.693696906
 40
10.2391232714
 50
51.5237523968
 51
87.9740679432
  0
ARC
  8
CYAN
 10
-173.432381667
 20
324.3554269126
 40
392.510688325
 50
95.6984618744
 51
96.5806355312
  0
ARC
  8
CYAN
 10
-217.1392009305
 20
739.7951719994
 40
25.5469511992
 50
252.1300601091
 51
267.1382567519
  0
LINE
  8
CYAN
 10
-224.97847
 20
715.48072
 11
-230.06254
 21
715.85026
  0
ARC
  8
CYAN
 10
-229.8176098469
 20
709.4120900959
 40
6.4428272128
 50
92.1786780878
 51
151.9194375607
  0
LINE
  8
CYAN
 10
-235.50203
 20
712.44481
 11
-217.51148
 21
704.46808
  0
LINE
  8
CYAN
 10
-217.51148
 20
704.46808
 11
-218.32214
 21
702.63974
  0
LINE
  8
CYAN
 10
-218.32214
 20
702.63974
 11
-236.6567
 21
710.76624
  0
LINE
  8
CYAN
 10
-236.6567
 20
710.76624
 11
-236.99587
 21
710.2152
  0
ARC
  8
CYAN
 10
-172.0999346132
 20
676.2915065646
 40
9.9254065226
 50
22.4448063888
 51
92.4995102159
  0
ARC
  8
CYAN
 10
-170.3246643743
 20
660.070363252
 40
26.2302147901
 50
94.8290183279
 51
145.2317627558
  0
ARC
  8
CYAN
 10
-172.2297699557
 20
663.4131898381
 40
22.8193922987
 50
149.4024666368
 51
241.218267334
  0
ARC
  8
CYAN
 10
-170.4770375089
 20
663.324019262
 40
23.6379394245
 50
237.3877673594
 51
269.6055511264
  0
LINE
  8
CYAN
 10
-170.63977
 20
639.68664
 11
-169.79572
 21
639.73409
  0
LINE
  8
CYAN
 10
-169.79572
 20
639.73409
 11
-170.00765
 21
650.36056
  0
LINE
  8
CYAN
 10
-170.00765
 20
650.36056
 11
-168.00717
 21
650.35635
  0
LINE
  8
CYAN
 10
-168.00717
 20
650.35635
 11
-167.8
 21
639.94472
  0
ARC
  8
CYAN
 10
-169.1136138748
 20
647.6118877568
 40
7.7788844202
 50
279.7220776175
 51
320.4143353929
  0
ARC
  8
CYAN
 10
-223.3419299863
 20
661.6777826612
 40
63.1562601782
 50
342.4701393521
 51
16.9412624595
  0
ARC
  8
CYAN
 10
10.9998238435
 20
539.5316434572
 40
12.1391065295
 50
119.9843080774
 51
143.9587490033
  0
ARC
  8
CYAN
 10
-26.1872778762
 20
549.2449137009
 40
27.4919807842
 50
305.667347587
 51
354.6339332636
  0
ARC
  8
CYAN
 10
-34.2371822599
 20
564.4366993157
 40
44.5880549219
 50
271.0062118891
 51
302.6872001921
  0
ARC
  8
CYAN
 10
-37.1565770282
 20
587.3053695439
 40
67.5513874561
 50
249.406676625
 51
273.1418758709
  0
ARC
  8
CYAN
 10
109.4184581291
 20
972.2002284986
 40
479.4103706818
 50
246.3347810508
 51
249.1880974386
  0
ARC
  8
CYAN
 10
-188.8671332638
 20
204.7357413878
 40
345.0095662141
 50
72.1325969436
 51
81.4796931485
  0
LINE
  8
CYAN
 10
-137.75054
 20
545.93758
 11
-142.62409
 21
547.24881
  0
ARC
  8
CYAN
 10
-139.5558295601
 20
557.907833795
 40
11.0918443186
 50
92.8353049712
 51
253.9412358676
  0
ARC
  8
CYAN
 10
-289.1915516402
 20
-14183.6479323473
 40
14753.3873345859
 50
89.0176822791
 51
89.4210004383
  0
ARC
  8
CYAN
 10
-40.6999958102
 20
143.1794368524
 40
424.4149187267
 50
84.9846136575
 51
89.400843198
  0
ARC
  8
CYAN
 10
8.2897613703
 20
663.4461598492
 40
98.1987785758
 50
263.0478480541
 51
275.4325084472
  0
LINE
  8
CYAN
 10
17.58655
 20
565.68845
 11
21.80416
 21
565.31376
  0
LINE
  8
CYAN
 10
21.80416
 20
565.31376
 11
23.11659
 21
563.34657
  0
LINE
  8
CYAN
 10
23.11659
 20
563.34657
 11
23.39803
 21
560.0685
  0
LINE
  8
CYAN
 10
23.39803
 20
560.0685
 11
15.43093
 21
559.31913
  0
LINE
  8
CYAN
 10
15.43093
 20
559.31913
 11
15.68154
 21
557.33387
  0
LINE
  8
CYAN
 10
15.68154
 20
557.33387
 11
23.58532
 21
558.07729
  0
LINE
  8
CYAN
 10
23.58532
 20
558.07729
 11
23.83292
 21
555.418
  0
ARC
  8
CYAN
 10
-19.9088099958
 20
549.9523199074
 40
44.08188519
 50
358.0516254439
 51
7.1223902745
  0
ARC
  8
CYAN
 10
19.0758355955
 20
549.9072680499
 40
5.2759740035
 50
243.7556670622
 51
344.0064108729
  0
ARC
  8
CYAN
 10
26.6159152477
 20
555.1657222131
 40
14.0459865452
 50
202.6137212104
 51
225.3387659225
  0
LINE
  8
CYAN
 10
13.64981
 20
549.76481
 11
12.0565
 21
550.60794
  0
ARC
  8
CYAN
 10
5.7097715388
 20
585.6363585439
 40
35.598750931
 50
268.7499374084
 51
280.2698902436
  0
ARC
  8
CYAN
 10
-217.4881038417
 20
610.7916344558
 40
91.6563594138
 50
216.080012038
 51
239.9279386625
  0
ARC
  8
CYAN
 10
-261.727946177
 20
536.490919706
 40
5.2946509305
 50
251.4073572627
 51
294.0434524408
  0
ARC
  8
CYAN
 10
-303.0345705505
 20
567.3015988952
 40
56.2115412481
 50
320.6438209035
 51
346.3849001188
  0
ARC
  8
CYAN
 10
-243.3008723707
 20
552.7129767779
 40
5.2790232203
 50
122.201428783
 51
165.1099591148
  0
ARC
  8
CYAN
 10
-229.3823226897
 20
518.6533597293
 40
42.002989992
 50
78.0207920984
 51
113.4748259303
  0
ARC
  8
CYAN
 10
-250.0959695614
 20
512.9183821438
 40
55.304976346
 50
48.221679923
 51
57.8478090644
  0
LINE
  8
CYAN
 10
-213.24901
 20
554.16086
 11
-212.05901
 21
554.34391
  0
LINE
  8
CYAN
 10
-212.05901
 20
554.34391
 11
-211.50944
 21
555.80762
  0
ARC
  8
CYAN
 10
-230.0326677345
 20
545.4056681204
 40
21.2440713756
 50
29.3169373258
 51
57.8946881332
  0
ARC
  8
CYAN
 10
-231.4957386566
 20
510.9208800877
 40
54.0075580234
 50
76.3406621329
 51
111.1315163007
  0
ARC
  8
CYAN
 10
-247.5030896174
 20
556.0458905811
 40
6.2899092127
 50
123.4047628969
 51
169.8732716878
  0
ARC
  8
CYAN
 10
-360.1332907195
 20
588.3623169331
 40
110.9198031071
 50
339.8085427765
 51
343.6574784308
  0
LINE
  8
CYAN
 10
-256.03012
 20
550.07743
 11
-259.71701
 21
542.82343
  0
LINE
  8
CYAN
 10
-259.71701
 20
542.82343
 11
-261.14688
 21
540.88412
  0
ARC
  8
CYAN
 10
-262.7566302798
 20
542.0710098959
 40
2.0000008971
 50
257.2052137588
 51
323.5981637666
  0
LINE
  8
CYAN
 10
-263.19955
 20
540.12067
 11
-264.95952
 21
540.52036
  0
LINE
  8
CYAN
 10
-264.95952
 20
540.52036
 11
-271.52721
 21
546.33538
  0
ARC
  8
CYAN
 10
-267.833049827
 20
549.9848095878
 40
5.1927984459
 50
180.8841609124
 51
224.6510096371
  0
ARC
  8
CYAN
 10
-283.3194015012
 20
556.3254555481
 40
12.1324492801
 50
328.0470047404
 51
354.6842817748
  0
ARC
  8
CYAN
 10
-278.1684776416
 20
555.2706863152
 40
6.9296934291
 50
359.4276165737
 51
65.8135358086
  0
ARC
  8
CYAN
 10
-274.2179357729
 20
570.2712821851
 40
8.7500812157
 50
235.8333318946
 51
262.7028480119
  0
LINE
  8
CYAN
 10
-279.132
 20
563.0314
 11
-281.20562
 21
565.39182
  0
ARC
  8
CYAN
 10
-284.6335042624
 20
561.1606700427
 40
5.4454587022
 50
50.9871901308
 51
129.865971102
  0
LINE
  8
CYAN
 10
-288.12401
 20
565.34031
 11
-282.76895
 21
559.02854
  0
LINE
  8
CYAN
 10
-282.76895
 20
559.02854
 11
-284.2391
 21
557.66991
  0
LINE
  8
CYAN
 10
-284.2391
 20
557.66991
 11
-289.75829
 21
564.17514
  0
LINE
  8
CYAN
 10
-289.75829
 20
564.17514
 11
-290.48127
 21
563.43459
  0
ARC
  8
CYAN
 10
-286.3553115855
 20
559.3606803083
 40
5.7982991484
 50
135.3636804957
 51
206.0549095253
  0
ARC
  8
CYAN
 10
-241.1182096322
 20
505.3748312836
 40
20.2570189194
 50
70.570384253
 51
94.2483642849
  0
ARC
  8
CYAN
 10
-246.3477872433
 20
531.0691080641
 40
6.6390603118
 50
165.6723842582
 51
304.1711203651
  0
ARC
  8
CYAN
 10
-115.9896511696
 20
443.8679284359
 40
163.1103099838
 50
139.4292106752
 51
146.996699578
  0
ARC
  8
CYAN
 10
-234.420539867
 20
550.3684700742
 40
5.4839692009
 50
53.9336747769
 51
184.3474539194
  0
LINE
  8
CYAN
 10
-231.19201
 20
554.80136
 11
-229.67995
 21
553.6541
  0
LINE
  8
CYAN
 10
-229.67995
 20
553.6541
 11
-238.84082
 21
543.18192
  0
LINE
  8
CYAN
 10
-238.84082
 20
543.18192
 11
-237.3355
 21
541.8651
  0
LINE
  8
CYAN
 10
-237.3355
 20
541.8651
 11
-228.26879
 21
552.22964
  0
LINE
  8
CYAN
 10
-228.26879
 20
552.22964
 11
-225.70407
 21
550.77632
  0
ARC
  8
CYAN
 10
-222.085309382
 20
561.4365699897
 40
11.2577243816
 50
251.2495500715
 51
286.8400847386
  0
ARC
  8
CYAN
 10
-218.7033987411
 20
539.8849791902
 40
10.7773048298
 50
23.8567232867
 51
90.6407980951
  0
ARC
  8
CYAN
 10
-200.5124008287
 20
543.5667219535
 40
8.3619718131
 50
175.3551320824
 51
230.6210074564
  0
LINE
  8
CYAN
 10
-205.81763
 20
537.1032
 11
-203.68198
 21
535.84762
  0
LINE
  8
CYAN
 10
-203.68198
 20
535.84762
 11
-210.04214
 21
523.69699
  0
LINE
  8
CYAN
 10
-210.04214
 20
523.69699
 11
-208.27021
 21
522.76948
  0
LINE
  8
CYAN
 10
-208.27021
 20
522.76948
 11
-201.92209
 21
534.89711
  0
LINE
  8
CYAN
 10
-201.92209
 20
534.89711
 11
-199.95851
 21
533.53526
  0
ARC
  8
CYAN
 10
-203.6532008154
 20
529.3037763807
 40
5.6174899948
 50
285.7340706389
 51
48.8743873373
  0
LINE
  8
CYAN
 10
-202.12989
 20
523.89677
 11
-211.03577
 21
508.01094
  0
ARC
  8
CYAN
 10
-216.8821661729
 20
510.7495707421
 40
6.4560395407
 50
191.389472368
 51
334.9001715456
  0
ARC
  8
CYAN
 10
-235.7118844941
 20
510.4805694386
 40
12.5412215088
 50
355.399418079
 51
55.5228451532
  0
LINE
  8
CYAN
 10
-228.61258
 20
520.81895
 11
-229.84599
 21
521.54931
  0
LINE
  8
CYAN
 10
-229.84599
 20
521.54931
 11
-221.0961
 21
534.80936
  0
LINE
  8
CYAN
 10
-221.0961
 20
534.80936
 11
-222.72937
 21
535.96552
  0
LINE
  8
CYAN
 10
-222.72937
 20
535.96552
 11
-231.51565
 21
522.65033
  0
LINE
  8
CYAN
 10
-231.51565
 20
522.65033
 11
-234.37974
 21
524.47823
  0
LINE
  8
CYAN
 10
-194.87665
 20
501.44826
 11
-196.37744
 21
501.01966
  0
LINE
  8
CYAN
 10
-196.37744
 20
501.01966
 11
-197.32737
 21
498.74721
  0
LINE
  8
CYAN
 10
-197.32737
 20
498.74721
 11
-181.12351
 21
492.69663
  0
LINE
  8
CYAN
 10
-181.12351
 20
492.69663
 11
-181.82313
 21
490.82299
  0
LINE
  8
CYAN
 10
-181.82313
 20
490.82299
 11
-198.11611
 21
496.90685
  0
LINE
  8
CYAN
 10
-198.11611
 20
496.90685
 11
-199.05715
 21
494.69911
  0
LINE
  8
CYAN
 10
-199.05715
 20
494.69911
 11
-199.05715
 21
493.36006
  0
ARC
  8
CYAN
 10
-141.9535535139
 20
561.9081721353
 40
89.2169513543
 50
230.2042123284
 51
247.2235811544
  0
ARC
  8
CYAN
 10
-175.5361362227
 20
435.1700609238
 40
44.4883531554
 50
71.8789925713
 51
91.2319853377
  0
ARC
  8
CYAN
 10
-161.55754
 20
479.058795
 40
1.6131526114
 50
264.9638289575
 51
95.0361710425
  0
LINE
  8
CYAN
 10
-161.69915
 20
480.66572
 11
-167.27351
 21
482.75483
  0
ARC
  8
CYAN
 10
-165.7630815537
 20
484.6434980934
 40
2.4183592078
 50
50.296565878
 51
231.349553448
  0
LINE
  8
CYAN
 10
-164.2182
 20
486.50409
 11
-159.55516
 21
484.0403
  0
ARC
  8
CYAN
 10
-158.7479389662
 20
485.5904416134
 40
1.7477256132
 50
242.4921956181
 51
52.2055755493
  0
LINE
  8
CYAN
 10
-157.67688
 20
486.97152
 11
-162.9318
 21
490.30693
  0
ARC
  8
CYAN
 10
-181.6653742041
 20
473.760145882
 40
24.9948568131
 50
41.4531608758
 51
67.7588509383
  0
ARC
  8
CYAN
 10
-201.8809060414
 20
407.843339205
 40
93.8666117409
 50
71.5695568747
 51
85.7206544432
  0
LINE
  8
CYAN
 10
-329.82563
 20
614.4879
 11
-319.42745
 21
606.83138
  0
LINE
  8
CYAN
 10
-319.42745
 20
606.83138
 11
-320.63406
 21
605.23785
  0
LINE
  8
CYAN
 10
-320.63406
 20
605.23785
 11
-331.25847
 21
613.05922
  0
LINE
  8
CYAN
 10
-331.25847
 20
613.05922
 11
-332.83373
 21
610.74378
  0
ARC
  8
CYAN
 10
-326.6168394474
 20
606.9433549473
 40
7.2864915236
 50
148.5622878604
 51
223.920283986
  0
LINE
  8
CYAN
 10
-331.86534
 20
601.88903
 11
-320.50553
 21
592.32715
  0
ARC
  8
CYAN
 10
-324.5755507784
 20
589.3220348911
 40
5.0592278022
 50
341.6456518902
 51
36.440445137
  0
LINE
  8
CYAN
 10
-319.7737
 20
587.72892
 11
-322.1753
 21
584.10982
  0
ARC
  8
CYAN
 10
-317.0849023127
 20
583.0432855075
 40
5.2009272672
 50
168.1666244993
 51
237.3894070154
  0
LINE
  8
CYAN
 10
-319.88782
 20
578.66227
 11
-317.71503
 21
577.48155
  0
LINE
  8
CYAN
 10
-317.71503
 20
577.48155
 11
-312.95006
 21
586.77658
  0
LINE
  8
CYAN
 10
-312.95006
 20
586.77658
 11
-311.08381
 21
586.0329
  0
LINE
  8
CYAN
 10
-311.08381
 20
586.0329
 11
-315.86174
 21
576.71259
  0
LINE
  8
CYAN
 10
-315.86174
 20
576.71259
 11
-313.54504
 21
575.65276
  0
LINE
  8
CYAN
 10
-313.54504
 20
575.65276
 11
-310.58669
 21
575.65276
  0
ARC
  8
CYAN
 10
-311.8380739748
 20
580.9169947523
 40
5.4109268503
 50
283.3718417519
 51
2.3454113312
  0
ARC
  8
CYAN
 10
-301.955456241
 20
579.8983865125
 40
4.6448129125
 50
73.877510485
 51
164.5157289173
  0
ARC
  8
CYAN
 10
-301.2790809579
 20
591.9291687219
 40
7.5934686114
 50
274.6337843293
 51
11.6685811828
  0
ARC
  8
CYAN
 10
-289.8583171502
 20
595.8605277104
 40
4.6489594839
 50
108.4138107321
 51
211.0170621033
  0
ARC
  8
CYAN
 10
-292.2434611943
 20
604.6101869578
 40
4.434499148
 50
281.9294326432
 51
35.2030742867
  0
LINE
  8
CYAN
 10
-288.61997
 20
607.16657
 11
-289.83988
 21
609.10938
  0
LINE
  8
CYAN
 10
-289.83988
 20
609.10938
 11
-290.42993
 21
609.61504
  0
LINE
  8
CYAN
 10
-290.42993
 20
609.61504
 11
-298.35213
 21
602.38326
  0
LINE
  8
CYAN
 10
-298.35213
 20
602.38326
 11
-299.75097
 21
603.81432
  0
LINE
  8
CYAN
 10
-299.75097
 20
603.81432
 11
-291.8221
 21
611.05218
  0
LINE
  8
CYAN
 10
-291.8221
 20
611.05218
 11
-293.69019
 21
613.10935
  0
ARC
  8
CYAN
 10
-296.9174580345
 20
609.5669100304
 40
4.7920913915
 50
47.6655495078
 51
134.1093950258
  0
LINE
  8
CYAN
 10
-300.2529
 20
613.00769
 11
-301.80964
 21
610.86158
  0
ARC
  8
CYAN
 10
-305.049634801
 20
613.9653491429
 40
4.4867526345
 50
244.0128957983
 51
316.2301775315
  0
LINE
  8
CYAN
 10
-307.01559
 20
609.93224
 11
-319.12552
 21
617.94283
  0
ARC
  8
CYAN
 10
-322.5789649533
 20
610.3414584007
 40
8.3490797239
 50
65.5668154835
 51
150.2224065485
  0
LINE
  8
CYAN
 10
-284.2777
 20
634.47057
 11
-302.83233
 21
648.324
  0
ARC
  8
CYAN
 10
-298.7869702115
 20
651.4717927183
 40
5.1257716312
 50
151.0108131306
 51
217.8873519931
  0
ARC
  8
CYAN
 10
-306.1682696405
 20
657.7080264615
 40
4.7407557161
 50
307.6790662171
 51
63.9234753039
  0
LINE
  8
CYAN
 10
-304.08437
 20
661.96621
 11
-306.50218
 21
663.25391
  0
LINE
  8
CYAN
 10
-306.50218
 20
663.25391
 11
-310.71094
 21
653.45586
  0
LINE
  8
CYAN
 10
-310.71094
 20
653.45586
 11
-312.53844
 21
654.26883
  0
LINE
  8
CYAN
 10
-312.53844
 20
654.26883
 11
-308.33982
 21
664.04327
  0
LINE
  8
CYAN
 10
-308.33982
 20
664.04327
 11
-309.65763
 21
664.46916
  0
ARC
  8
CYAN
 10
-311.7799825626
 20
659.5801549341
 40
5.3297983953
 50
66.5339855219
 51
180.5883079667
  0
ARC
  8
CYAN
 10
-328.4888750098
 20
663.6009091135
 40
12.0871711172
 50
322.2976806349
 51
340.295211522
  0
ARC
  8
CYAN
 10
-322.5237828564
 20
663.7534015731
 40
8.3586572163
 50
269.339352507
 51
295.4982393877
  0
ARC
  8
CYAN
 10
-322.1277273353
 20
648.0550331136
 40
7.3567661301
 50
93.8380212435
 51
185.0452571652
  0
ARC
  8
CYAN
 10
-333.5628594379
 20
644.4079222654
 40
5.085981027
 50
295.9837333542
 51
36.1487616096
  0
LINE
  8
CYAN
 10
-331.33461
 20
639.83604
 11
-333.08802
 21
638.70958
  0
ARC
  8
CYAN
 10
-329.9016894487
 20
635.0075418592
 40
4.8844435485
 50
130.7184567964
 51
196.2486906452
  0
LINE
  8
CYAN
 10
-334.59103
 20
633.64084
 11
-333.65144
 21
631.76329
  0
LINE
  8
CYAN
 10
-333.65144
 20
631.76329
 11
-332.33679
 21
630.38646
  0
LINE
  8
CYAN
 10
-332.33679
 20
630.38646
 11
-324.38355
 21
637.52061
  0
LINE
  8
CYAN
 10
-324.38355
 20
637.52061
 11
-322.9656
 21
636.1058
  0
LINE
  8
CYAN
 10
-322.9656
 20
636.1058
 11
-331.00133
 21
628.89766
  0
LINE
  8
CYAN
 10
-331.00133
 20
628.89766
 11
-329.64324
 21
627.24885
  0
ARC
  8
CYAN
 10
-325.979905
 20
630.7471
 40
5.0653505688
 50
223.679482413
 51
316.320517587
  0
LINE
  8
CYAN
 10
-322.31657
 20
627.24885
 11
-321.06397
 21
629.25141
  0
ARC
  8
CYAN
 10
-317.5267294378
 20
625.3988601106
 40
5.2301253757
 50
69.7076798987
 51
132.5567721024
  0
LINE
  8
CYAN
 10
-315.71287
 20
630.30438
 11
-296.36325
 21
618.22651
  0
ARC
  8
CYAN
 10
-292.1504199539
 20
625.0211900039
 40
7.9947240949
 50
238.2003048261
 51
311.5713803459
  0
LINE
  8
CYAN
 10
-286.8455
 20
619.0401
 11
-284.73421
 21
621.20459
  0
LINE
  8
CYAN
 10
-284.73421
 20
621.20459
 11
-302.81349
 21
633.87128
  0
LINE
  8
CYAN
 10
-302.81349
 20
633.87128
 11
-301.63256
 21
635.48607
  0
LINE
  8
CYAN
 10
-301.63256
 20
635.48607
 11
-283.58661
 21
622.84258
  0
LINE
  8
CYAN
 10
-283.58661
 20
622.84258
 11
-282.39908
 21
624.67207
  0
ARC
  8
CYAN
 10
-289.3322703281
 20
628.4221417113
 40
7.8823959534
 50
331.5916258534
 51
50.1150601702
  0
LINE
  8
CYAN
 10
-224.31921
 20
604.87072
 11
-224.91344
 21
603.58053
  0
LINE
  8
CYAN
 10
-224.91344
 20
603.58053
 11
-205.5657
 21
595.38131
  0
LINE
  8
CYAN
 10
-205.5657
 20
595.38131
 11
-206.35509
 21
593.54366
  0
LINE
  8
CYAN
 10
-206.35509
 20
593.54366
 11
-225.33501
 21
601.587
  0
ARC
  8
CYAN
 10
-214.9527290759
 20
600.07593124
 40
10.4916674549
 50
171.7191417488
 51
200.3240366741
  0
ARC
  8
CYAN
 10
-176.1691732596
 20
639.3153038306
 40
64.8312604098
 50
221.4114907438
 51
227.9775361158
  0
ARC
  8
CYAN
 10
-229.9748233674
 20
573.2517330126
 40
20.7063940096
 50
36.5343334927
 51
59.8305571737
  0
ARC
  8
CYAN
 10
-204.7699044365
 20
588.6194731624
 40
9.0910702463
 50
199.5432740889
 51
269.4921719839
  0
ARC
  8
CYAN
 10
-198.0936985391
 20
560.4255499186
 40
20.2629398441
 50
71.6138232158
 51
109.4786232145
  0
LINE
  8
CYAN
 10
-191.70236
 20
579.65411
 11
-186.00501
 21
579.65411
  0
ARC
  8
CYAN
 10
-186.0575278293
 20
591.752933986
 40
12.0989379686
 50
270.2487044254
 51
306.0196733711
  0
ARC
  8
CYAN
 10
-188.7715503513
 20
590.4680891322
 40
12.9951824826
 50
319.1438345053
 51
356.7732902102
  0
LINE
  8
CYAN
 10
-175.79697
 20
589.73663
 11
-175.32219
 21
593.88806
  0
LINE
  8
CYAN
 10
-175.32219
 20
593.88806
 11
-175.73769
 21
597.3873
  0
ARC
  8
CYAN
 10
-203.418084933
 20
593.8644318134
 40
27.9036711546
 50
7.2530089105
 51
56.2571469084
  0
ARC
  8
CYAN
 10
-201.1788242605
 20
595.8163901736
 40
25.04878585
 50
58.0365127648
 51
117.2971718198
  0
ARC
  8
CYAN
 10
-199.3223428218
 20
594.5561368024
 40
27.0413386367
 50
119.5686863137
 51
157.5772408851
  0
ARC
  8
CYAN
 10
-147.4564483188
 20
541.8343253626
 40
3.3333320084
 50
86.5970643986
 51
151.6792804706
  0
LINE
  8
CYAN
 10
-150.3908
 20
543.41568
 11
-150.66986
 21
542.89785
  0
ARC
  8
CYAN
 10
-136.9637996313
 20
539.665549312
 40
14.0820402843
 50
166.7303885907
 51
181.3775519927
  0
LINE
  8
CYAN
 10
-151.04177
 20
539.32701
 11
-143.63627
 21
538.26957
  0
LINE
  8
CYAN
 10
-143.63627
 20
538.26957
 11
-143.90107
 21
536.2871
  0
LINE
  8
CYAN
 10
-143.90107
 20
536.2871
 11
-151.43881
 21
537.36342
  0
LINE
  8
CYAN
 10
-151.43881
 20
537.36342
 11
-152.6698
 21
532.44373
  0
LINE
  8
CYAN
 10
-152.6698
 20
532.44373
 11
-152.82326
 21
528.90774
  0
ARC
  8
CYAN
 10
-148.5939311226
 20
529.2939611219
 40
4.2469270665
 50
185.2177624156
 51
264.8197927548
  0
ARC
  8
CYAN
 10
-150.406026057
 20
538.2361613847
 40
13.2490322062
 50
276.1902523103
 51
302.5090056549
  0
ARC
  8
CYAN
 10
-141.3407895273
 20
518.9612995562
 40
8.3320053851
 50
350.1189490434
 51
103.4979664155
  0
ARC
  8
CYAN
 10
-114.3035312688
 20
530.756761003
 40
23.0094127074
 50
215.0839553827
 51
248.2624934842
  0
LINE
  8
CYAN
 10
-122.82518
 20
509.38354
 11
-63.66777
 21
475.18236
  0
ARC
  8
CYAN
 10
87.4144185012
 20
614.848019633
 40
205.7482057347
 50
222.7513744068
 51
237.33990638
  0
ARC
  8
CYAN
 10
40.2206657909
 20
540.8347427836
 40
117.969286275
 50
237.2380259911
 51
253.6412801081
  0
ARC
  8
CYAN
 10
10.771429909
 20
438.8576898826
 40
11.835302671
 50
251.3904993576
 51
33.0990645148
  0
ARC
  8
CYAN
 10
-149.8640543129
 20
337.3187252996
 40
201.8708402292
 50
32.3443095688
 51
45.9341207668
  0
ARC
  8
CYAN
 10
-129.8242900124
 20
359.6840272385
 40
171.8669903428
 50
45.5489562425
 51
62.7208488346
  0
ARC
  8
CYAN
 10
-1419.9230730466
 20
-3222.8518509068
 40
3978.2138203771
 50
69.8736470232
 51
70.991870167
  0
LINE
  8
CYAN
 10
-124.20963
 20
538.4394
 11
-135.74782
 21
542.59048
  0
LINE
  8
CYAN
 10
-135.74782
 20
542.59048
 11
-138.97821
 21
543.66646
  0
ARC
  8
CYAN
 10
-128.2465962873
 20
626.7671855823
 40
83.7907997645
 50
256.8854672257
 51
262.6415581476
  0
ARC
  8
CYAN
 10
-399.9639745453
 20
439.6093941467
 40
114.7714286857
 50
40.6658799757
 51
54.5853817145
  0
LINE
  8
CYAN
 10
-333.45518
 20
533.14581
 11
-333.86238
 21
535.12158
  0
LINE
  8
CYAN
 10
-333.86238
 20
535.12158
 11
-332.46685
 21
537.96865
  0
LINE
  8
CYAN
 10
-332.46685
 20
537.96865
 11
-330.46023
 21
540.05737
  0
LINE
  8
CYAN
 10
-330.46023
 20
540.05737
 11
-279.34433
 21
497.43731
  0
LINE
  8
CYAN
 10
-279.34433
 20
497.43731
 11
-277.99482
 21
498.9134
  0
LINE
  8
CYAN
 10
-277.99482
 20
498.9134
 11
-329.25799
 21
541.6443
  0
LINE
  8
CYAN
 10
-329.25799
 20
541.6443
 11
-325.63379
 21
544.93623
  0
ARC
  8
CYAN
 10
-324.6435813651
 20
542.8262302182
 40
2.3307964775
 50
46.6953262873
 51
115.1403478864
  0
ARC
  8
CYAN
 10
-468.9544385378
 20
357.4896738967
 40
237.214710034
 50
48.5958022241
 51
52.0412021066
  0
ARC
  8
CYAN
 10
-239.4980502862
 20
646.0691161452
 40
132.3279247145
 50
236.7417444105
 51
241.5483408093
  0
ARC
  8
CYAN
 10
-309.2692576345
 20
522.7344552724
 40
9.7013594185
 50
7.071328372
 51
46.0919892698
  0
ARC
  8
CYAN
 10
-213.670830676
 20
619.5768431637
 40
128.6061751695
 50
228.0500195906
 51
239.4528887616
  0
ARC
  8
CYAN
 10
-272.0721205541
 20
508.7626212922
 40
6.9626035765
 50
179.5301252463
 51
226.8866430697
  0
ARC
  8
CYAN
 10
25.5978443267
 20
894.9683633523
 40
494.5398546432
 50
232.2994112481
 51
235.0919706341
  0
ARC
  8
CYAN
 10
-260.228989548
 20
487.4220879677
 40
3.4512440821
 50
349.901777469
 51
35.1742715073
  0
LINE
  8
CYAN
 10
-256.83121
 20
486.81696
 11
-256.36973
 21
485.6067
  0
ARC
  8
CYAN
 10
-187.7416153241
 20
577.1050648446
 40
114.3755607339
 50
233.128362658
 51
246.1154185569
  0
ARC
  8
CYAN
 10
-236.6882897119
 20
468.1113095448
 40
5.140586804
 50
5.515195452
 51
59.1439418565
  0
LINE
  8
CYAN
 10
-231.5715
 20
468.60537
 11
-230.59148
 21
467.51016
  0
ARC
  8
CYAN
 10
-250.1892184984
 20
412.1813890357
 40
58.6970548722
 50
44.0886095461
 51
70.4955896832
  0
ARC
  8
CYAN
 10
-169.7770451569
 20
464.7424826597
 40
40.0077438524
 50
197.0364096375
 51
229.7961767586
  0
ARC
  8
CYAN
 10
-196.5044999686
 20
433.0673236837
 40
1.4374442971
 50
309.4412891162
 51
51.1282636077
  0
LINE
  8
CYAN
 10
-195.59131
 20
431.95722
 11
-197.64333
 21
431.77658
  0
ARC
  8
CYAN
 10
-180.9461105922
 20
460.2715806282
 40
33.0266891583
 50
206.9848870779
 51
239.6309710143
  0
ARC
  8
CYAN
 10
-213.5011917996
 20
443.543570287
 40
3.5769621164
 50
29.1433915058
 51
132.7326313868
  0
LINE
  8
CYAN
 10
-215.92844
 20
446.17095
 11
-225.20643
 21
454.10486
  0
LINE
  8
CYAN
 10
-225.20643
 20
454.10486
 11
-226.60556
 21
452.49433
  0
LINE
  8
CYAN
 10
-226.60556
 20
452.49433
 11
-217.56265
 21
444.76071
  0
ARC
  8
CYAN
 10
-212.7239845645
 20
444.2443993256
 40
4.8661339798
 50
173.9092899326
 51
213.6748402417
  0
ARC
  8
CYAN
 10
-244.105284668
 20
390.6094789596
 40
57.8063597993
 50
46.7026118295
 51
61.7828192788
  0
ARC
  8
CYAN
 10
-205.5058772341
 20
431.4004721714
 40
1.6518974321
 50
205.4359185036
 51
50.8317864417
  0
ARC
  8
CYAN
 10
-241.6392088734
 20
390.930659327
 40
52.7344356298
 50
48.9356804995
 51
69.3591512214
  0
ARC
  8
CYAN
 10
-195.9785458787
 20
478.4764950896
 40
46.8169681621
 50
205.3399472971
 51
234.6733607355
  0
ARC
  8
CYAN
 10
-243.722191384
 20
446.4704103538
 40
13.1436076572
 50
65.5927295019
 51
85.7297239241
  0
ARC
  8
CYAN
 10
-348.3715680365
 20
369.6289787589
 40
138.7372719477
 50
40.4163600024
 51
51.4994165742
  0
ARC
  8
CYAN
 10
-262.850047875
 20
488.738539679
 40
10.5674037426
 50
248.2291464728
 51
274.5895207571
  0
ARC
  8
CYAN
 10
-345.9133696441
 20
411.169150589
 40
104.1853932873
 50
40.567082591
 51
54.9062165054
  0
ARC
  8
CYAN
 10
-286.6948002374
 20
504.6074581541
 40
8.2206750744
 50
243.8456376925
 51
274.7401449851
  0
ARC
  8
CYAN
 10
-352.5329745801
 20
448.2534549955
 40
79.178332411
 50
38.209668759
 51
56.3536860577
  0
LINE
  8
CYAN
 10
-308.66306
 20
514.16733
 11
-312.90726
 21
514.39983
  0
ARC
  8
CYAN
 10
-441.5711331108
 20
353.7528842322
 40
228.2047844269
 50
54.8443952181
 51
61.9041017946
  0
ARC
  8
CYAN
 10
-332.3235199141
 20
557.3447085969
 40
2.8882447272
 50
134.9263382534
 51
232.083554192
  0
LINE
  8
CYAN
 10
-334.36319
 20
559.38963
 11
-333.03432
 21
561.13561
  0
LINE
  8
CYAN
 10
-333.03432
 20
561.13561
 11
-284.71903
 21
527.83791
  0
LINE
  8
CYAN
 10
-284.71903
 20
527.83791
 11
-283.5938
 21
529.49135
  0
LINE
  8
CYAN
 10
-283.5938
 20
529.49135
 11
-331.89941
 21
562.78237
  0
LINE
  8
CYAN
 10
-331.89941
 20
562.78237
 11
-330.55111
 21
564.78017
  0
ARC
  8
CYAN
 10
-327.8396362676
 20
562.5064491726
 40
3.5386291417
 50
55.0218985092
 51
140.0183047414
  0
ARC
  8
CYAN
 10
-214.8838630618
 20
685.531040213
 40
163.5080871098
 50
227.2796766154
 51
236.676683767
  0
ARC
  8
CYAN
 10
-303.0918205523
 20
539.523360133
 40
9.5213264865
 50
53.1435305561
 51
99.7798437123
  0
ARC
  8
CYAN
 10
-170.7802621072
 20
688.0581379381
 40
189.4336936713
 50
228.0631893884
 51
235.2520077427
  0
ARC
  8
CYAN
 10
-277.7158096988
 20
521.335809947
 40
11.1192598454
 50
64.6990506332
 51
95.3439770688
  0
ARC
  8
CYAN
 10
-92.9916848637
 20
738.2645517647
 40
274.2036797234
 50
228.9783302201
 51
234.2977156853
  0
ARC
  8
CYAN
 10
-251.8207632102
 20
505.1535929526
 40
10.5085231081
 50
58.3051763971
 51
96.4964232125
  0
ARC
  8
CYAN
 10
-181.5960305406
 20
576.1070864612
 40
89.6218349943
 50
223.78324833
 51
238.7995827192
  0
ARC
  8
CYAN
 10
-226.2173148579
 20
492.5768288683
 40
7.1046067169
 50
50.4521235829
 51
104.7246365751
  0
ARC
  8
CYAN
 10
-187.1307741094
 20
526.4560049221
 40
44.7347909144
 50
219.4104895121
 51
239.0644305496
  0
ARC
  8
CYAN
 10
-216.8116403107
 20
420.4713701168
 40
67.9431113786
 50
54.4236694778
 51
84.3544162966
  0
ARC
  8
CYAN
 10
-255.0565568051
 20
398.787356154
 40
109.4039135555
 50
34.7406674345
 51
44.6932297425
  0
ARC
  8
CYAN
 10
-138.0081214156
 20
487.5804490997
 40
37.9004328573
 50
224.2527407992
 51
238.6283726435
  0
ARC
  8
CYAN
 10
-159.1685802487
 20
453.38599145
 40
2.3261852158
 50
327.3958828885
 51
52.0672457422
  0
LINE
  8
CYAN
 10
-157.20897
 20
452.13257
 11
-161.7615
 21
445.20936
  0
LINE
  8
CYAN
 10
-161.7615
 20
445.20936
 11
-197.29045
 21
469.1094
  0
LINE
  8
CYAN
 10
-197.29045
 20
469.1094
 11
-198.40676
 21
467.44993
  0
LINE
  8
CYAN
 10
-198.40676
 20
467.44993
 11
-162.9509
 21
443.59905
  0
LINE
  8
CYAN
 10
-162.9509
 20
443.59905
 11
-167.98042
 21
436.33875
  0
ARC
  8
CYAN
 10
-169.6180819785
 20
438.1997498204
 40
2.4789629056
 50
239.024864763
 51
311.3474672686
  0
ARC
  8
CYAN
 10
-199.1289094366
 20
397.9410639559
 40
47.4484887256
 50
53.4826521831
 51
81.0295114909
  0
ARC
  8
CYAN
 10
-163.3102409034
 20
503.0597808998
 40
64.8138842924
 50
206.2358596156
 51
243.992434019
  0
ARC
  8
CYAN
 10
-114.6376235214
 20
679.6037885597
 40
231.3303082306
 50
238.5063461781
 51
242.5019413383
  0
ARC
  8
CYAN
 10
-247.6852485514
 20
478.2945279734
 40
12.8557762961
 50
18.3833201923
 51
52.7312161186
  0
ARC
  8
CYAN
 10
-313.8684730283
 20
377.7804417171
 40
133.1753796793
 50
56.2604378554
 51
64.6308277336
  0
ARC
  8
CYAN
 10
-237.4392676108
 20
517.4068867172
 40
27.3396650156
 50
207.2070749418
 51
224.8864346876
  0
ARC
  8
CYAN
 10
-2254.9661259396
 20
-2746.1605804501
 40
3813.441304459
 50
58.4877620755
 51
58.8728563308
  0
ARC
  8
CYAN
 10
-196.5687151959
 20
559.0114417484
 40
96.1573867173
 50
202.6220800112
 51
205.0943307746
  0
ARC
  8
CYAN
 10
-373.0368204097
 20
401.9754902467
 40
148.6761133521
 50
53.8477820535
 51
64.0438966327
  0
ARC
  8
CYAN
 10
-304.6785525469
 20
540.0642653964
 40
5.498976722
 50
177.2183509008
 51
233.312725532
  0
ARC
  8
CYAN
 10
-315.9341400411
 20
502.068660064
 40
10.6766651528
 50
1.8349949353
 51
63.6441524886
  0
ARC
  8
CYAN
 10
-320.1167003145
 20
495.1769299976
 40
18.7215095508
 50
61.5373319938
 51
119.3326475418
  0
LINE
  8
CYAN
 10
-329.28798
 20
511.49816
 11
-330.4012
 21
510.1738
  0
ARC
  8
CYAN
 10
-328.8702079685
 20
508.8869155741
 40
2.0000020315
 50
139.9510707376
 51
180.0001596871
  0
LINE
  8
CYAN
 10
-330.87021
 20
508.88691
 11
-330.87021
 21
507.94305
  0
ARC
  8
CYAN
 10
-330.2035515815
 20
507.9430566976
 40
0.6666584186
 50
180.0005756211
 51
206.5706234477
  0
LINE
  8
CYAN
 10
-330.7998
 20
507.64486
 11
-330.55071
 21
507.14679
  0
ARC
  8
CYAN
 10
-331.7432328989
 20
506.5504144045
 40
1.333332185
 50
356.1884029584
 51
26.5694384052
  0
LINE
  8
CYAN
 10
-330.41285
 20
506.46178
 11
-330.45748
 21
505.79167
  0
ARC
  8
CYAN
 10
-353.0717068311
 20
519.0972000893
 40
26.2381475361
 50
321.316867373
 51
329.5287262232
  0
ARC
  8
CYAN
 10
-331.8273099599
 20
501.2160134851
 40
1.6666673699
 50
117.2266666867
 51
241.4551964504
  0
ARC
  8
CYAN
 10
-353.47740666
 20
483.828255402
 40
26.2381397681
 50
29.1531678218
 51
37.3650226612
  0
LINE
  8
CYAN
 10
-330.5631
 20
496.61006
 11
-330.53389
 21
495.9391
  0
ARC
  8
CYAN
 10
-331.8659609523
 20
495.8811057737
 40
1.3333327987
 50
332.111688242
 51
2.4929057672
  0
LINE
  8
CYAN
 10
-330.68748
 20
495.25744
 11
-330.94796
 21
494.76523
  0
ARC
  8
CYAN
 10
-330.3587210324
 20
494.4533960375
 40
0.6666655691
 50
152.1115458884
 51
178.6811649332
  0
LINE
  8
CYAN
 10
-331.02521
 20
494.46874
 11
-331.04692
 21
493.52513
  0
ARC
  8
CYAN
 10
-329.0474510302
 20
493.4791230426
 40
1.9999982003
 50
178.681880303
 51
218.7311664337
  0
LINE
  8
CYAN
 10
-330.60763
 20
492.22779
 11
-329.52517
 21
490.87817
  0
ARC
  8
CYAN
 10
-319.9808833654
 20
506.984120103
 40
18.7215126548
 50
239.3492796308
 51
297.144575954
  0
ARC
  8
CYAN
 10
-315.9579508683
 20
499.997998576
 40
10.6766610157
 50
295.0377177615
 51
2.2154013363
  0
LINE
  8
CYAN
 10
-305.28927
 20
500.41072
 11
-314.49094
 21
500.51656
  0
LINE
  8
CYAN
 10
-314.49094
 20
500.51656
 11
-314.46794
 21
502.51643
  0
LINE
  8
CYAN
 10
-314.46794
 20
502.51643
 11
-305.26295
 21
502.41054
  0
ARC
  8
CYAN
 10
-239.110909892
 20
441.6826898712
 40
5.0021321785
 50
358.8587369508
 51
81.0737031249
  0
ARC
  8
CYAN
 10
-217.0132351862
 20
786.303353347
 40
340.3476273821
 50
265.5641259082
 51
266.4082785858
  0
ARC
  8
CYAN
 10
-248.1458302378
 20
441.8357298979
 40
7.0385260109
 50
46.9027869923
 51
179.5721405299
  0
LINE
  8
CYAN
 10
-255.18416
 20
441.88829
 11
-256.85171
 21
440.92359
  0
ARC
  8
CYAN
 10
-262.0250232139
 20
491.5975000254
 40
50.9372979934
 50
263.266922696
 51
275.8291463675
  0
LINE
  8
CYAN
 10
-267.99712
 20
441.01151
 11
-270.19096
 21
442.32686
  0
ARC
  8
CYAN
 10
-263.7212298981
 20
444.2045946963
 40
6.7367124906
 50
161.3296481865
 51
196.1845176176
  0
ARC
  8
CYAN
 10
-198.8151189418
 20
424.3956924438
 40
74.5956131271
 50
150.2972106868
 51
162.8747977089
  0
ARC
  8
CYAN
 10
-268.7009798912
 20
464.5303724246
 40
5.9990521635
 50
328.0735220341
 51
26.7874781881
  0
ARC
  8
CYAN
 10
-319.3318893445
 20
439.4837292362
 40
62.4862457294
 50
26.3659443838
 51
54.9058950328
  0
ARC
  8
CYAN
 10
-289.5049706875
 20
468.093339655
 40
23.328229734
 50
74.8475085147
 51
100.9093230438
  0
LINE
  8
CYAN
 10
-293.91996
 20
490.99998
 11
-294.63185
 21
490.65724
  0
LINE
  8
CYAN
 10
-294.63185
 20
490.65724
 11
-294.84293
 21
489.36593
  0
LINE
  8
CYAN
 10
-294.84293
 20
489.36593
 11
-293.97259
 21
488.39058
  0
LINE
  8
CYAN
 10
-293.97259
 20
488.39058
 11
-292.23524
 21
487.95648
  0
ARC
  8
CYAN
 10
-282.4079306373
 20
565.3147891745
 40
77.9800231319
 50
262.7601390591
 51
267.1629949977
  0
ARC
  8
CYAN
 10
-304.5259567973
 20
455.0024081021
 40
37.2147894139
 50
19.3721971289
 51
60.6184884171
  0
ARC
  8
CYAN
 10
-274.0941001046
 20
465.3025792096
 40
5.1032386247
 50
321.3134247543
 51
23.6125484823
  0
ARC
  8
CYAN
 10
-208.3936771028
 20
427.0568807339
 40
70.9781392044
 50
150.4029757273
 51
169.1226086608
  0
ARC
  8
CYAN
 10
-274.22126507
 20
439.8158088655
 40
3.9270194151
 50
170.6912801338
 51
248.8369553675
  0
ARC
  8
CYAN
 10
-251.7337835574
 20
510.3369402294
 40
77.9398606888
 50
252.1387034296
 51
280.4834490883
  0
ARC
  8
CYAN
 10
-239.2348690539
 20
438.5065916857
 40
5.0943125589
 50
289.2835013291
 51
12.113640504
  0
LINE
  8
CYAN
 10
-234.25399
 20
439.57564
 11
-242.83063
 21
439.2307
  0
LINE
  8
CYAN
 10
-242.83063
 20
439.2307
 11
-242.911
 21
441.22909
  0
LINE
  8
CYAN
 10
-242.911
 20
441.22909
 11
-234.10977
 21
441.58306
  0
ARC
  8
CYAN
 10
-203.6904884427
 20
508.3878035157
 40
1.4740749035
 50
101.524525653
 51
285.4854416146
  0
ARC
  8
CYAN
 10
-193.5669037388
 20
487.2042911655
 40
22.028330919
 50
84.8765477574
 51
116.2126953674
  0
ARC
  8
CYAN
 10
-358.8726292212
 20
211.5661836702
 40
341.3695104001
 50
58.4937754432
 51
60.6590643203
  0
ARC
  8
CYAN
 10
-157.2593269443
 20
555.246809134
 40
57.5275320773
 50
246.1982168752
 51
262.1569006331
  0
ARC
  8
CYAN
 10
-164.3993401859
 20
501.2723098705
 40
3.097418526
 50
256.7441034812
 51
352.9711211789
  0
LINE
  8
CYAN
 10
-161.3252
 20
500.89328
 11
-160.09241
 21
503.87836
  0
LINE
  8
CYAN
 10
-160.09241
 20
503.87836
 11
-171.30699
 21
508.56272
  0
LINE
  8
CYAN
 10
-171.30699
 20
508.56272
 11
-170.53613
 21
510.4082
  0
LINE
  8
CYAN
 10
-170.53613
 20
510.4082
 11
-159.39499
 21
505.75451
  0
LINE
  8
CYAN
 10
-159.39499
 20
505.75451
 11
-157.88485
 21
509.94687
  0
LINE
  8
CYAN
 10
-157.88485
 20
509.94687
 11
-157.99953
 21
512.00953
  0
ARC
  8
CYAN
 10
-189.6206601424
 20
472.613960073
 40
50.5164013105
 50
51.247485681
 51
74.4976117283
  0
ARC
  8
CYAN
 10
-152.2593484158
 20
644.4666676727
 40
125.463679458
 50
254.0822972312
 51
259.0373254902
  0
ARC
  8
CYAN
 10
-174.4040249572
 20
537.7975125501
 40
18.6001643253
 50
199.4404061436
 51
228.7475640642
  0
ARC
  8
CYAN
 10
-193.6131010398
 20
531.226059418
 40
1.712229961
 50
12.8510873489
 51
225.6171193318
  0
ARC
  8
CYAN
 10
-165.8774790361
 20
539.7499583777
 40
30.5311006485
 50
198.6186523831
 51
222.8138066306
  0
ARC
  8
CYAN
 10
-189.3310305748
 20
516.5120380117
 40
2.7036051037
 50
260.7657811553
 51
66.9864643301
  0
ARC
  8
CYAN
 10
-188.6870481467
 20
482.8117233437
 40
31.0504592888
 50
91.9892660614
 51
119.5168862548
  0
ARC
  8
CYAN
 10
-185.1513699245
 20
544.498431241
 40
26.1640517118
 50
333.3021675456
 51
19.7316391088
  0
ARC
  8
CYAN
 10
-182.1590729802
 20
545.3951123506
 40
23.0453160424
 50
20.1448846719
 51
83.3251102141
  0
ARC
  8
CYAN
 10
-179.3672066552
 20
542.7193118597
 40
25.565158687
 50
90.2536635595
 51
147.894631529
  0
ARC
  8
CYAN
 10
-192.1887692595
 20
550.5058348315
 40
10.5682668225
 50
146.7092393424
 51
195.8633094144
  0
ARC
  8
CYAN
 10
-160.6562718929
 20
579.1415411332
 40
52.2736980832
 50
217.0897748233
 51
261.0941598187
  0
ARC
  8
CYAN
 10
-167.8870675897
 20
532.3101213016
 40
4.8886242879
 50
259.8470152151
 51
336.8918125486
  0
LINE
  8
CYAN
 10
-163.39068
 20
530.39149
 11
-172.41558
 21
535.603
  0
LINE
  8
CYAN
 10
-172.41558
 20
535.603
 11
-171.41544
 21
537.33497
  0
LINE
  8
CYAN
 10
-171.41544
 20
537.33497
 11
-162.22337
 21
532.02692
  0
LINE
  8
CYAN
 10
-162.22337
 20
532.02692
 11
-161.77671
 21
532.74331
  0
ARC
  8
CYAN
 10
-265.6403074868
 20
582.4162501363
 40
4.99934531
 50
49.006045729
 51
137.2017467934
  0
LINE
  8
CYAN
 10
-269.30858
 20
585.8129
 11
-275.93278
 21
580.1617
  0
ARC
  8
CYAN
 10
-278.2447205419
 20
584.9273800387
 40
5.296864667
 50
235.9541864314
 51
295.8790858599
  0
LINE
  8
CYAN
 10
-281.2102
 20
580.53845
 11
-282.40466
 21
581.68476
  0
LINE
  8
CYAN
 10
-282.40466
 20
581.68476
 11
-277.10225
 21
586.81766
  0
LINE
  8
CYAN
 10
-277.10225
 20
586.81766
 11
-278.62522
 21
588.12696
  0
LINE
  8
CYAN
 10
-278.62522
 20
588.12696
 11
-283.79572
 21
583.12176
  0
LINE
  8
CYAN
 10
-283.79572
 20
583.12176
 11
-285.57296
 21
585.1669
  0
ARC
  8
CYAN
 10
-276.2014295063
 20
587.6511469794
 40
9.6952084479
 50
169.4960835489
 51
194.8467479405
  0
LINE
  8
CYAN
 10
-285.73417
 20
589.41861
 11
-284.38795
 21
591.5716
  0
ARC
  8
CYAN
 10
-288.78938971
 20
595.3875023338
 40
5.825270993
 50
319.0757962433
 51
26.7592776122
  0
LINE
  8
CYAN
 10
-283.58797
 20
598.01029
 11
-284.17687
 21
600.05147
  0
LINE
  8
CYAN
 10
-284.17687
 20
600.05147
 11
-262.31154
 21
600.05147
  0
LINE
  8
CYAN
 10
-262.31154
 20
600.05147
 11
-262.36527
 21
602.05147
  0
LINE
  8
CYAN
 10
-262.36527
 20
602.05147
 11
-284.17687
 21
602.05147
  0
LINE
  8
CYAN
 10
-284.17687
 20
602.05147
 11
-283.26111
 21
603.71987
  0
ARC
  8
CYAN
 10
-290.3706898397
 20
604.7129195152
 40
7.1785982502
 50
352.0485037869
 51
44.5375495121
  0
ARC
  8
CYAN
 10
-280.7547501101
 20
613.0782571376
 40
5.5976523066
 50
139.0821028409
 51
216.5105182621
  0
LINE
  8
CYAN
 10
-284.98461
 20
616.74459
 11
-284.61375
 21
617.17279
  0
LINE
  8
CYAN
 10
-284.61375
 20
617.17279
 11
-279.59916
 21
612.33113
  0
LINE
  8
CYAN
 10
-279.59916
 20
612.33113
 11
-278.21228
 21
613.77216
  0
LINE
  8
CYAN
 10
-278.21228
 20
613.77216
 11
-283.35329
 21
618.73588
  0
LINE
  8
CYAN
 10
-283.35329
 20
618.73588
 11
-282.94034
 21
619.252
  0
ARC
  8
CYAN
 10
-279.4376728899
 20
613.8136806401
 40
6.4686934032
 50
67.5043036602
 51
122.7844353275
  0
LINE
  8
CYAN
 10
-276.96266
 20
619.79016
 11
-269.53018
 21
614.46179
  0
ARC
  8
CYAN
 10
-266.492290795
 20
618.6891499731
 40
5.2057029462
 50
234.2980076266
 51
309.5833014141
  0
LINE
  8
CYAN
 10
-263.17522
 20
614.67712
 11
-257.46679
 21
623.71904
  0
ARC
  8
CYAN
 10
-253.2532682484
 20
619.4345604538
 40
6.0092038185
 50
74.5292028463
 51
134.5215948398
  0
LINE
  8
CYAN
 10
-251.65033
 20
625.22603
 11
-250.16329
 21
624.53269
  0
LINE
  8
CYAN
 10
-250.16329
 20
624.53269
 11
-254.11697
 21
617.39201
  0
LINE
  8
CYAN
 10
-254.11697
 20
617.39201
 11
-252.35059
 21
616.45336
  0
LINE
  8
CYAN
 10
-252.35059
 20
616.45336
 11
-248.38179
 21
623.62134
  0
LINE
  8
CYAN
 10
-248.38179
 20
623.62134
 11
-247.52578
 21
623.17401
  0
ARC
  8
CYAN
 10
-252.9471527263
 20
616.8901281314
 40
8.2993044031
 50
13.7900484362
 51
49.214259818
  0
LINE
  8
CYAN
 10
-244.88707
 20
618.86839
 11
-244.13308
 21
617.52281
  0
LINE
  8
CYAN
 10
-244.13308
 20
617.52281
 11
-241.17083
 21
616.82324
  0
LINE
  8
CYAN
 10
-241.17083
 20
616.82324
 11
-232.39267
 21
622.31303
  0
ARC
  8
CYAN
 10
-230.2054776561
 20
617.9851895102
 40
4.8491250401
 50
39.5817824628
 51
116.8109979522
  0
LINE
  8
CYAN
 10
-226.46818
 20
621.07495
 11
-225.90656
 21
620.01105
  0
LINE
  8
CYAN
 10
-225.90656
 20
620.01105
 11
-231.93292
 21
616.10834
  0
LINE
  8
CYAN
 10
-231.93292
 20
616.10834
 11
-230.72291
 21
614.50918
  0
LINE
  8
CYAN
 10
-230.72291
 20
614.50918
 11
-224.7612
 21
618.37311
  0
LINE
  8
CYAN
 10
-224.7612
 20
618.37311
 11
-224.09872
 21
617.14607
  0
ARC
  8
CYAN
 10
-228.7081996441
 20
615.2301027253
 40
4.991816622
 50
322.5506585114
 51
22.5706060985
  0
LINE
  8
CYAN
 10
-224.74524
 20
612.19478
 11
-228.24542
 21
609.18081
  0
LINE
  8
CYAN
 10
-228.24542
 20
609.18081
 11
-231.85419
 21
606.75892
  0
ARC
  8
CYAN
 10
-228.9403197767
 20
601.278864473
 40
6.2065810441
 50
118.0005951254
 51
236.2837613312
  0
LINE
  8
CYAN
 10
-232.38547
 20
596.11625
 11
-225.54632
 21
591.48746
  0
ARC
  8
CYAN
 10
-228.0417502311
 20
587.0519207927
 40
5.0893202
 50
331.8699976782
 51
60.6379346968
  0
LINE
  8
CYAN
 10
-223.55358
 20
584.65244
 11
-223.86471
 21
584.0506
  0
LINE
  8
CYAN
 10
-223.86471
 20
584.0506
 11
-230.23311
 21
587.98665
  0
LINE
  8
CYAN
 10
-230.23311
 20
587.98665
 11
-231.25476
 21
586.26692
  0
LINE
  8
CYAN
 10
-231.25476
 20
586.26692
 11
-224.77261
 21
582.26056
  0
LINE
  8
CYAN
 10
-224.77261
 20
582.26056
 11
-225.22278
 21
581.53097
  0
ARC
  8
CYAN
 10
-229.7423196673
 20
585.4049123214
 40
5.9526185762
 50
245.9256746821
 51
319.3983313425
  0
LINE
  8
CYAN
 10
-232.17052
 20
579.97007
 11
-240.14094
 21
584.75994
  0
ARC
  8
CYAN
 10
-241.1617661828
 20
581.6961235671
 40
3.2294050892
 50
71.5725573529
 51
194.5471954603
  0
ARC
  8
CYAN
 10
-248.3969865519
 20
582.6940036217
 40
4.4899144455
 50
296.5738368334
 51
336.2397462999
  0
LINE
  8
CYAN
 10
-246.38842
 20
578.67841
 11
-247.26787
 21
578.09458
  0
LINE
  8
CYAN
 10
-247.26787
 20
578.09458
 11
-251.693
 21
585.04292
  0
LINE
  8
CYAN
 10
-251.693
 20
585.04292
 11
-253.3356
 21
583.89895
  0
LINE
  8
CYAN
 10
-253.3356
 20
583.89895
 11
-248.98643
 21
577.06988
  0
LINE
  8
CYAN
 10
-248.98643
 20
577.06988
 11
-249.65094
 21
576.71706
  0
ARC
  8
CYAN
 10
-252.1412301338
 20
581.7090000204
 40
5.5786208078
 50
226.1508074359
 51
296.5128741021
  0
LINE
  8
CYAN
 10
-256.00589
 20
577.68589
 11
-262.36084
 21
586.18965
  0
ARC
  8
CYAN
 10
-169.8096324618
 20
546.3334985239
 40
5.215880199
 50
239.8330941629
 51
2.0621022553
  0
ARC
  8
CYAN
 10
-180.5626444615
 20
546.733802441
 40
15.9669302098
 50
359.2370024538
 51
123.3953063269
  0
ARC
  8
CYAN
 10
-186.5781792916
 20
555.4383670807
 40
5.3934847038
 50
120.9381864078
 51
227.6360818092
  0
ARC
  8
CYAN
 10
-206.134761368
 20
500.8173615712
 40
53.0802153365
 50
50.5826638535
 51
72.5444486073
  0
ARC
  8
CYAN
 10
-123.6134977415
 20
469.1934243101
 40
25.2674646817
 50
49.9917274403
 51
71.7951395025
  0
LINE
  8
CYAN
 10
-115.71955
 20
493.19614
 11
-117.1727
 21
494.31299
  0
ARC
  8
CYAN
 10
-170.4820365172
 20
465.4823487589
 40
60.6060329858
 50
28.4053143688
 51
44.8979120488
  0
ARC
  8
CYAN
 10
-129.9886578378
 20
506.2368715578
 40
3.1685377217
 50
39.7006702189
 51
211.8430362071
  0
LINE
  8
CYAN
 10
-132.68032
 20
504.56517
 11
-133.39609
 21
502.18105
  0
ARC
  8
CYAN
 10
-142.9790599148
 20
509.9816700372
 40
12.3564956744
 50
266.3079135682
 51
320.8541139067
  0
LINE
  8
CYAN
 10
-143.77475
 20
497.65082
 11
-145.44451
 21
498.36619
  0
LINE
  8
CYAN
 10
-145.44451
 20
498.36619
 11
-146.04117
 21
499.91576
  0
ARC
  8
CYAN
 10
-150.7515877808
 20
493.4139935644
 40
8.0287609538
 50
54.0773176562
 51
76.6977015834
  0
ARC
  8
CYAN
 10
-146.8982304328
 20
496.3500181946
 40
5.2737484409
 50
112.3572360504
 51
148.8051099922
  0
LINE
  8
CYAN
 10
-151.40945
 20
499.08156
 11
-152.48311
 21
492.40556
  0
ARC
  8
CYAN
 10
-148.757290407
 20
492.1478806635
 40
3.7347195718
 50
176.0436983197
 51
247.0071929706
  0
LINE
  8
CYAN
 10
-150.21613
 20
488.70987
 11
-147.11483
 21
488.82904
  0
ARC
  8
CYAN
 10
-148.6882802247
 20
485.1068645653
 40
4.0410809911
 50
298.5500743705
 51
67.0850875856
  0
ARC
  8
CYAN
 10
-147.2505657035
 20
477.8320711204
 40
3.7576724844
 50
82.4515369353
 51
126.7782912269
  0
ARC
  8
CYAN
 10
-139.1161178259
 20
475.4006177018
 40
11.7234405852
 50
152.3461134723
 51
176.1273873934
  0
ARC
  8
CYAN
 10
-147.992488865
 20
475.5168877319
 40
2.9000716054
 50
166.5303939568
 51
246.6380155609
  0
ARC
  8
CYAN
 10
-148.3211239808
 20
465.3603008951
 40
7.5391441906
 50
58.4012609423
 51
96.2545332646
  0
ARC
  8
CYAN
 10
-146.585039356
 20
468.8545625282
 40
3.6702325422
 50
278.5216952927
 51
52.8947979696
  0
ARC
  8
CYAN
 10
-147.6478784318
 20
459.4861315166
 40
5.9593960949
 50
74.3589825202
 51
193.7253269106
  0
ARC
  8
CYAN
 10
-107.5690604321
 20
454.0904151342
 40
46.0405402442
 50
175.038665405
 51
194.5831229396
  0
ARC
  8
CYAN
 10
-121.1061892676
 20
451.1681082545
 40
32.2089685335
 50
195.6154189971
 51
209.9107373474
  0
ARC
  8
CYAN
 10
-142.8352311833
 20
437.434441264
 40
6.6128758305
 50
200.6060733469
 51
245.6166435434
  0
ARC
  8
CYAN
 10
-145.0920402869
 20
433.2309296981
 40
1.8800577711
 50
255.4206342391
 51
17.4870916968
  0
ARC
  8
CYAN
 10
-136.9929813039
 20
436.8937760806
 40
7.0257564953
 50
178.0430148395
 51
206.1635906592
  0
ARC
  8
CYAN
 10
-142.026648976
 20
437.0332005116
 40
1.990529693
 50
55.9920523055
 51
177.1059734772
  0
LINE
  8
CYAN
 10
-140.91333
 20
438.68327
 11
-132.4432
 21
431.64975
  0
LINE
  8
CYAN
 10
-132.4432
 20
431.64975
 11
-128.24212
 21
429.55046
  0
LINE
  8
CYAN
 10
-128.24212
 20
429.55046
 11
-125.40517
 21
432.60347
  0
LINE
  8
CYAN
 10
-125.40517
 20
432.60347
 11
-139.12391
 21
444.04805
  0
LINE
  8
CYAN
 10
-139.12391
 20
444.04805
 11
-137.76042
 21
445.51515
  0
LINE
  8
CYAN
 10
-137.76042
 20
445.51515
 11
-123.83122
 21
433.895
  0
LINE
  8
CYAN
 10
-123.83122
 20
433.895
 11
-121.44516
 21
434.54352
  0
LINE
  8
CYAN
 10
-121.44516
 20
434.54352
 11
-120.01418
 21
434.54352
  0
ARC
  8
CYAN
 10
-114.0764996997
 20
446.1411202609
 40
13.0292125303
 50
242.8886927528
 51
19.0735142779
  0
ARC
  8
CYAN
 10
-129.7932199464
 20
444.236199956
 40
28.7000714459
 50
12.3993884473
 51
88.8146744567
  0
ARC
  8
CYAN
 10
-127.2506274345
 20
475.258477209
 40
3.0363436824
 50
90.7510955862
 51
230.0697136335
  0
LINE
  8
CYAN
 10
-127.29043
 20
478.29456
 11
-123.47336
 21
478.05622
  0
LINE
  8
CYAN
 10
-123.47336
 20
478.05622
 11
-116.43532
 21
476.38713
  0
LINE
  8
CYAN
 10
-116.43532
 20
476.38713
 11
-112.1407
 21
474.71838
  0
ARC
  8
CYAN
 10
-115.1328892243
 20
469.3712180619
 40
6.1274250012
 50
342.8593168095
 51
60.7692975681
  0
ARC
  8
CYAN
 10
-93.7206182593
 20
483.164561396
 40
22.0307898028
 50
225.077622836
 51
242.4513324353
  0
ARC
  8
CYAN
 10
-103.3790658173
 20
467.8031630008
 40
4.2051423537
 50
262.7479458931
 51
348.5653085195
  0
ARC
  8
CYAN
 10
-123.9712864531
 20
469.992270565
 40
24.8980698095
 50
353.0267334692
 51
48.1789300177
  0
LINE
  8
CYAN
 10
-95.56054
 20
479.9688
 11
-96.06745
 21
475.66042
  0
ARC
  8
CYAN
 10
-3.2784990242
 20
480.3426859943
 40
92.9070128571
 50
182.8887784278
 51
204.4921356729
  0
ARC
  8
CYAN
 10
-84.1692994335
 20
443.709949725
 40
4.1129246728
 50
207.255779189
 51
280.9582292683
  0
ARC
  8
CYAN
 10
-105.8148681845
 20
507.8798408876
 40
71.8003862671
 50
288.2013779518
 51
303.9063974261
  0
ARC
  8
CYAN
 10
-49.4435821568
 20
430.598388603
 40
24.0675948274
 50
113.1731271032
 51
132.6891352559
  0
ARC
  8
CYAN
 10
-68.4026271485
 20
408.642788376
 40
45.0909905387
 50
42.8214263731
 51
77.8528503913
  0
LINE
  8
CYAN
 10
-35.32948
 20
439.29184
 11
-33.68132
 21
434.09637
  0
LINE
  8
CYAN
 10
-33.68132
 20
434.09637
 11
-32.79326
 21
429.53454
  0
LINE
  8
CYAN
 10
-32.79326
 20
429.53454
 11
-31.27197
 21
429.788
  0
LINE
  8
CYAN
 10
-31.27197
 20
429.788
 11
-30.63764
 21
431.05527
  0
ARC
  8
CYAN
 10
-69.4354700533
 20
433.0193610817
 40
38.8475130558
 50
357.1019476036
 51
8.5356145004
  0
LINE
  8
CYAN
 10
-31.01824
 20
438.78527
 11
-32.41321
 21
441.57292
  0
ARC
  8
CYAN
 10
-73.6546728963
 20
406.7172851801
 40
53.9979031123
 50
40.2031579388
 51
71.4829395857
  0
ARC
  8
CYAN
 10
-59.73907
 20
451.42743
 40
7.2528787238
 50
63.5246130088
 51
116.4753869912
  0
ARC
  8
CYAN
 10
-96.0068061984
 20
496.6085977647
 40
50.8733576403
 50
288.2316336778
 51
310.4921555733
  0
LINE
  8
CYAN
 10
-80.0906
 20
448.28911
 11
-82.75313
 21
448.41584
  0
ARC
  8
CYAN
 10
-63.4609807687
 20
458.8325148226
 40
21.9247379989
 50
169.7471330137
 51
208.3665496359
  0
LINE
  8
CYAN
 10
-85.03562
 20
462.73496
 11
-79.45682
 21
466.15624
  0
ARC
  8
CYAN
 10
-86.4424295698
 20
469.7007278503
 40
7.8333986994
 50
333.0968309099
 51
49.5352530471
  0
LINE
  8
CYAN
 10
-81.35871
 20
475.66042
 11
-82.24622
 21
481.109
  0
ARC
  8
CYAN
 10
-86.0027012688
 20
480.1467610056
 40
3.8777642276
 50
14.3676355787
 51
88.8323429833
  0
LINE
  8
CYAN
 10
-85.92368
 20
484.02372
 11
-88.33248
 21
484.02372
  0
LINE
  8
CYAN
 10
-88.33248
 20
484.02372
 11
-88.20561
 21
475.5337
  0
LINE
  8
CYAN
 10
-88.20561
 20
475.5337
 11
-90.20584
 21
475.5337
  0
LINE
  8
CYAN
 10
-90.20584
 20
475.5337
 11
-90.33066
 21
483.88692
  0
LINE
  8
CYAN
 10
-90.33066
 20
483.88692
 11
-92.64372
 21
483.64354
  0
ARC
  8
CYAN
 10
-88.7380788174
 20
477.5484614899
 40
7.2390617549
 50
122.6511814457
 51
160.4673343019
  0
ARC
  8
CYAN
 10
60.3970241388
 20
479.3317826954
 40
80.9456907938
 50
127.6386784277
 51
154.8736855651
  0
ARC
  8
CYAN
 10
-7.4171211641
 20
512.2732862301
 40
5.6555518255
 50
165.3614452551
 51
215.8059681546
  0
ARC
  8
CYAN
 10
24.9059589562
 20
569.8049342267
 40
71.1609578411
 50
238.7562655963
 51
259.3575538199
  0
LINE
  8
CYAN
 10
11.76399
 20
499.86803
 11
13.84981
 21
498.8573
  0
ARC
  8
CYAN
 10
-37.0431303259
 20
476.3258917579
 40
55.6574858612
 50
357.127432282
 51
23.880010943
  0
ARC
  8
CYAN
 10
4.6293018942
 20
477.5657544752
 40
14.4866958253
 50
324.3117343092
 51
343.8516190973
  0
ARC
  8
CYAN
 10
131.0110215606
 20
388.7047449431
 40
140.0088322583
 50
144.9479934613
 51
147.5834266521
  0
LINE
  8
CYAN
 10
12.81936
 20
463.75942
 11
14.06531
 21
463.04782
  0
LINE
  8
CYAN
 10
14.06531
 20
463.04782
 11
14.95504
 21
462.87027
  0
ARC
  8
CYAN
 10
8.3315443872
 20
473.8840745524
 40
12.8520264882
 50
301.0219123435
 51
331.0961473034
  0
LINE
  8
CYAN
 10
19.58262
 20
467.67216
 11
21.71829
 21
469.8066
  0
ARC
  8
CYAN
 10
-36.9044098652
 20
481.0558577548
 40
59.6922669993
 50
349.1374138455
 51
8.8701343633
  0
ARC
  8
CYAN
 10
-75736.9870475179
 20
-21162.2909876839
 40
78792.5649705906
 50
15.9503637529
 51
15.9597798913
  0
LINE
  8
CYAN
 10
18.5145
 20
502.71028
 11
17.2691
 21
503.95523
  0
LINE
  8
CYAN
 10
17.2691
 20
503.95523
 11
13.35342
 21
505.73387
  0
ARC
  8
CYAN
 10
17.6873382143
 20
543.6255769009
 40
38.1387506212
 50
235.1830830438
 51
263.4750676073
  0
ARC
  8
CYAN
 10
0.35918
 20
514.181995
 40
4.8236074567
 50
157.2209760893
 51
202.7790239107
  0
LINE
  8
CYAN
 10
-4.08821
 20
516.04959
 11
3.2091
 21
524.05296
  0
LINE
  8
CYAN
 10
3.2091
 20
524.05296
 11
5.34477
 21
524.40876
  0
LINE
  8
CYAN
 10
5.34477
 20
524.40876
 11
10.86152
 21
522.80802
  0
ARC
  8
CYAN
 10
8.8943416747
 20
532.2132710258
 40
9.6087739812
 50
281.8135357483
 51
321.1619127176
  0
LINE
  8
CYAN
 10
16.37882
 20
526.1874
 11
17.00212
 21
530.33501
  0
ARC
  8
CYAN
 10
9.0655316163
 20
540.7427321209
 40
13.0885489997
 50
307.3279581411
 51
338.0499176561
  0
LINE
  8
CYAN
 10
21.20529
 20
535.85025
 11
20.76264
 21
538.62966
  0
LINE
  8
CYAN
 10
20.76264
 20
538.62966
 11
18.76737
 21
540.37367
  0
LINE
  8
CYAN
 10
18.76737
 20
540.37367
 11
13.29769
 21
534.78618
  0
LINE
  8
CYAN
 10
13.29769
 20
534.78618
 11
11.84986
 21
536.16621
  0
LINE
  8
CYAN
 10
11.84986
 20
536.16621
 11
17.5389
 21
541.97779
  0
LINE
  8
CYAN
 10
17.5389
 20
541.97779
 11
16.40098
 21
543.1149
  0
ARC
  8
CYAN
 10
13.2541401092
 20
535.8937999937
 40
7.8769846134
 50
66.4531978989
 51
106.8936401893
  0
ARC
  8
CYAN
 10
-140.15023879
 20
562.6440957675
 40
2.3333331129
 50
134.6978256572
 51
257.2097004722
  0
ARC
  8
CYAN
 10
-154.4603600472
 20
192.6359222205
 40
367.9913432862
 50
83.6950651196
 51
87.8518571914
  0
ARC
  8
CYAN
 10
-126.6853807771
 20
470.4399713846
 40
88.8647244251
 50
65.32326236
 51
81.8240234477
  0
ARC
  8
CYAN
 10
-88.9207081795
 20
552.8178528197
 40
1.7585796618
 50
247.8229169968
 51
46.4819491493
  0
ARC
  8
CYAN
 10
-121.6766465671
 20
502.6700427664
 40
61.6285553915
 50
56.553735221
 51
77.7601953537
  0
ARC
  8
CYAN
 10
-132.9489988951
 20
380.6289782595
 40
183.8864349874
 50
82.3944414905
 51
92.756208932
  0
LINE
  8
CYAN
 10
-118.54662
 20
554.37403
 11
-116.10957
 21
548.75374
  0
ARC
  8
CYAN
 10
-117.8789962102
 20
548.2752192554
 40
1.8329896935
 50
300.331946839
 51
15.1329828254
  0
LINE
  8
CYAN
 10
-116.95332
 20
546.69314
 11
-129.88759
 21
548.56657
  0
ARC
  8
CYAN
 10
-128.2759402686
 20
550.0754812885
 40
2.2077654162
 50
160.4385534988
 51
223.1143282643
  0
ARC
  8
CYAN
 10
-118.368974095
 20
542.8589461484
 40
14.3871193774
 50
120.0635545218
 51
146.4285702968
  0
ARC
  8
CYAN
 10
-125.3129466092
 20
530.436618216
 40
24.8753464036
 50
74.216130537
 51
90.6067125419
  0
LINE
  8
CYAN
 10
-111.4493
 20
545.49799
 11
-113.28552
 21
551.34223
  0
ARC
  8
CYAN
 10
-111.4757691151
 20
551.6331816458
 40
1.8329896688
 50
114.3322195456
 51
189.1332264262
  0
LINE
  8
CYAN
 10
-112.23101
 20
553.30335
 11
-99.56341
 21
550.08818
  0
ARC
  8
CYAN
 10
-101.3239605402
 20
548.7560053406
 40
2.2077652792
 50
334.4382260981
 51
37.1140906042
  0
ARC
  8
CYAN
 10
-110.4223206392
 20
556.968549514
 40
14.3871098034
 50
294.0635567183
 51
320.4285731956
  0
ARC
  8
CYAN
 10
-102.2178862371
 20
568.5969890905
 40
24.8753444005
 50
248.2160966199
 51
264.6066698909
  0
ARC
  8
CYAN
 10
-45.045959237
 20
606.944542451
 40
50.7154517429
 50
242.7860865926
 51
267.4917406135
  0
ARC
  8
CYAN
 10
-46.9676001278
 20
557.271719854
 40
1.0377012195
 50
253.320433634
 51
24.2831106624
  0
ARC
  8
CYAN
 10
-53.5636621695
 20
556.3697929222
 40
7.6580954097
 50
9.9913603798
 51
63.1907043533
  0
LINE
  8
CYAN
 10
-50.10969
 20
563.20474
 11
-67.58678
 21
564.27041
  0
ARC
  8
CYAN
 10
-67.2434506216
 20
562.8769076859
 40
1.435173774
 50
103.8408009768
 51
226.0868530481
  0
ARC
  8
CYAN
 10
-26.1872778762
 20
595.3939462991
 40
27.4919807842
 50
5.3660667364
 51
54.332652413
  0
ARC
  8
CYAN
 10
-34.2371822599
 20
580.2021606843
 40
44.5880549219
 50
57.3127998079
 51
88.9937881109
  0
ARC
  8
CYAN
 10
-37.1565770282
 20
557.3334904561
 40
67.5513874561
 50
86.8581241291
 51
110.593323375
  0
ARC
  8
CYAN
 10
109.418284371
 20
172.4385704556
 40
479.4103660081
 50
110.8118805578
 51
113.665196521
  0
ARC
  8
CYAN
 10
-188.8671901283
 20
939.9031052812
 40
345.0095614553
 50
278.5203165187
 51
287.8674132332
  0
LINE
  8
CYAN
 10
-137.75054
 20
598.70128
 11
-142.62409
 21
597.39005
  0
ARC
  8
CYAN
 10
-139.5558295601
 20
586.7310262051
 40
11.0918443186
 50
106.0587641324
 51
267.1646950288
  0
ARC
  8
CYAN
 10
-289.1915516397
 20
15328.2867923512
 40
14753.3873345898
 50
270.5789995617
 51
270.9823177209
  0
ARC
  8
CYAN
 10
-40.6999958102
 20
1001.4594231476
 40
424.4149187267
 50
270.599156802
 51
275.0153863425
  0
ARC
  8
CYAN
 10
8.2897613703
 20
481.1927001508
 40
98.1987785758
 50
84.5674915528
 51
96.9521519459
  0
LINE
  8
CYAN
 10
17.58655
 20
578.95041
 11
21.80416
 21
579.3251
  0
LINE
  8
CYAN
 10
21.80416
 20
579.3251
 11
23.11659
 21
581.29229
  0
LINE
  8
CYAN
 10
23.11659
 20
581.29229
 11
23.39803
 21
584.57036
  0
LINE
  8
CYAN
 10
23.39803
 20
584.57036
 11
15.43093
 21
585.31973
  0
LINE
  8
CYAN
 10
15.43093
 20
585.31973
 11
15.68154
 21
587.30499
  0
LINE
  8
CYAN
 10
15.68154
 20
587.30499
 11
23.58532
 21
586.56157
  0
LINE
  8
CYAN
 10
23.58532
 20
586.56157
 11
23.83292
 21
589.22086
  0
ARC
  8
CYAN
 10
-19.9088099958
 20
594.6865400926
 40
44.08188519
 50
352.8776097255
 51
1.9483745561
  0
ARC
  8
CYAN
 10
19.0758355955
 20
594.7315919501
 40
5.2759740035
 50
15.9935891271
 51
116.2443329378
  0
ARC
  8
CYAN
 10
26.6159051597
 20
589.4731328176
 40
14.0459829888
 50
134.6611905599
 51
157.386206599
  0
LINE
  8
CYAN
 10
13.64981
 20
594.87406
 11
12.0565
 21
594.03093
  0
ARC
  8
CYAN
 10
5.7098204089
 20
559.0024976015
 40
35.5987558508
 50
79.7301911275
 51
91.2501410933
  0
ARC
  8
CYAN
 10
10.9998238435
 20
605.1072165428
 40
12.1391065295
 50
216.0412509967
 51
240.0156919226
  0
LINE
  8
CYAN
 10
-116.10957
 20
595.88512
 11
-118.54662
 21
590.26483
  0
ARC
  8
CYAN
 10
-125.3129466092
 20
614.202241784
 40
24.8753464036
 50
269.3932874581
 51
285.783869463
  0
ARC
  8
CYAN
 10
-118.368974095
 20
601.7799138516
 40
14.3871193774
 50
213.5714297032
 51
239.9364454782
  0
ARC
  8
CYAN
 10
-128.2759402686
 20
594.5633787115
 40
2.2077654162
 50
136.8856717356
 51
199.5614465012
  0
LINE
  8
CYAN
 10
-129.88759
 20
596.07229
 11
-116.95332
 21
597.94573
  0
ARC
  8
CYAN
 10
-117.8789989026
 20
596.3636473199
 40
1.8329940091
 50
344.8668407412
 51
59.6680345833
  0
ARC
  8
CYAN
 10
-45.045959237
 20
537.694317549
 40
50.7154517429
 50
92.5082593865
 51
117.2139134074
  0
ARC
  8
CYAN
 10
-67.2434506216
 20
581.7619523141
 40
1.435173774
 50
133.9131469519
 51
256.1591990232
  0
LINE
  8
CYAN
 10
-67.58678
 20
580.36845
 11
-50.10969
 21
581.43412
  0
ARC
  8
CYAN
 10
-53.5636633244
 20
588.2690655222
 40
7.6580945422
 50
296.8093086078
 51
350.0087262639
  0
ARC
  8
CYAN
 10
-46.9676016164
 20
587.3671418465
 40
1.0376991633
 50
335.7173408452
 51
106.6795145813
  0
ARC
  8
CYAN
 10
-154.4603600472
 20
952.0029377795
 40
367.9913432862
 50
272.1481428086
 51
276.3049348804
  0
ARC
  8
CYAN
 10
-126.6853807771
 20
674.1988886154
 40
88.8647244251
 50
278.1759765523
 51
294.67673764
  0
ARC
  8
CYAN
 10
-88.9207081795
 20
591.8210071803
 40
1.7585796618
 50
313.5180508507
 51
112.1770830032
  0
ARC
  8
CYAN
 10
-121.6766465671
 20
641.9688172336
 40
61.6285553915
 50
282.2398046463
 51
303.446264779
  0
ARC
  8
CYAN
 10
-132.9489988951
 20
764.0098817405
 40
183.8864349874
 50
267.243791068
 51
277.6055585095
  0
ARC
  8
CYAN
 10
-140.15023879
 20
581.9947642325
 40
2.3333331129
 50
102.7902995278
 51
225.3021743428
  0
ARC
  8
CYAN
 10
-111.4757691151
 20
593.0056783542
 40
1.8329896688
 50
170.8667735738
 51
245.6677804544
  0
LINE
  8
CYAN
 10
-112.23101
 20
591.33551
 11
-99.56341
 21
594.55068
  0
ARC
  8
CYAN
 10
-101.3239605402
 20
595.8828546594
 40
2.2077652792
 50
322.8859093958
 51
25.5617739019
  0
ARC
  8
CYAN
 10
-110.4223206392
 20
587.670310486
 40
14.3871098034
 50
39.5714268044
 51
65.9364432817
  0
ARC
  8
CYAN
 10
-102.2178862371
 20
576.0418709095
 40
24.8753444005
 50
95.3933301091
 51
111.7839033801
  0
LINE
  8
CYAN
 10
-111.4493
 20
599.14087
 11
-113.28552
 21
593.29663
  0
ARC
  8
CYAN
 10
-127.2506288055
 20
669.3803866434
 40
3.0363475166
 50
129.9301920701
 51
269.2489312353
  0
LINE
  8
CYAN
 10
-127.29043
 20
666.3443
 11
-123.47336
 21
666.58265
  0
LINE
  8
CYAN
 10
-123.47336
 20
666.58265
 11
-116.43532
 21
668.25173
  0
LINE
  8
CYAN
 10
-116.43532
 20
668.25173
 11
-113.72972
 21
669.30304
  0
ARC
  8
CYAN
 10
-115.1328896108
 20
675.2676406792
 40
6.1274257416
 50
283.2381001737
 51
17.1406933734
  0
ARC
  8
CYAN
 10
-93.7206182593
 20
661.474298604
 40
22.0307898028
 50
117.5486675647
 51
134.922377164
  0
ARC
  8
CYAN
 10
-103.3790658173
 20
676.8356969992
 40
4.2051423537
 50
11.4346914805
 51
97.2520541069
  0
ARC
  8
CYAN
 10
-123.9712864531
 20
674.646589435
 40
24.8980698095
 50
311.8210699823
 51
6.9732665308
  0
ARC
  8
CYAN
 10
-123.6134977415
 20
675.4454356899
 40
25.2674646817
 50
288.2048604975
 51
310.0082725597
  0
LINE
  8
CYAN
 10
-115.71955
 20
651.44272
 11
-117.1727
 21
650.32587
  0
ARC
  8
CYAN
 10
-170.4820365172
 20
679.1565112411
 40
60.6060329858
 50
315.1020879512
 51
331.5946856312
  0
ARC
  8
CYAN
 10
-129.9886578378
 20
638.4019884422
 40
3.1685377217
 50
148.156963793
 51
320.2993297811
  0
LINE
  8
CYAN
 10
-132.68032
 20
640.07369
 11
-133.39609
 21
642.45781
  0
ARC
  8
CYAN
 10
-142.9790599148
 20
634.6571899628
 40
12.3564956744
 50
39.1458860933
 51
93.6920864318
  0
LINE
  8
CYAN
 10
-143.77475
 20
646.98804
 11
-145.44451
 21
646.27267
  0
LINE
  8
CYAN
 10
-145.44451
 20
646.27267
 11
-146.04117
 21
644.7231
  0
ARC
  8
CYAN
 10
-150.7515877808
 20
651.2248664356
 40
8.0287609538
 50
283.3022984166
 51
305.9226823438
  0
ARC
  8
CYAN
 10
-146.8982304328
 20
648.2888418054
 40
5.2737484409
 50
211.1948900078
 51
247.6427639496
  0
LINE
  8
CYAN
 10
-151.40945
 20
645.5573
 11
-152.48311
 21
652.2333
  0
ARC
  8
CYAN
 10
-148.757290407
 20
652.4909793365
 40
3.7347195718
 50
112.9928070294
 51
183.9563016803
  0
LINE
  8
CYAN
 10
-150.21613
 20
655.92899
 11
-147.11483
 21
655.80982
  0
ARC
  8
CYAN
 10
-148.6882802247
 20
659.5319954347
 40
4.0410809911
 50
292.9149124144
 51
61.4499256295
  0
ARC
  8
CYAN
 10
-147.2505554312
 20
666.806786201
 40
3.7576684796
 50
233.2214675759
 51
277.5483131592
  0
ARC
  8
CYAN
 10
-139.1161208856
 20
669.2382531375
 40
11.7234382646
 50
183.8726664703
 51
207.6538971014
  0
ARC
  8
CYAN
 10
-147.992488865
 20
669.1219722681
 40
2.9000716054
 50
113.3619844391
 51
193.4696060432
  0
ARC
  8
CYAN
 10
-148.3211239808
 20
679.2785591049
 40
7.5391441906
 50
263.7454667354
 51
301.5987390577
  0
ARC
  8
CYAN
 10
-146.585039356
 20
675.7842974718
 40
3.6702325422
 50
307.1052020304
 51
81.4783047073
  0
ARC
  8
CYAN
 10
-147.6478784318
 20
685.1527284834
 40
5.9593960949
 50
166.2746730894
 51
285.6410174798
  0
ARC
  8
CYAN
 10
-107.5690604321
 20
690.5484448658
 40
46.0405402442
 50
165.4168770604
 51
184.961334595
  0
ARC
  8
CYAN
 10
-121.1061892676
 20
693.4707517455
 40
32.2089685335
 50
150.0892626526
 51
164.3845810029
  0
ARC
  8
CYAN
 10
-142.8352311833
 20
707.204418736
 40
6.6128758305
 50
114.3833564566
 51
159.3939266531
  0
ARC
  8
CYAN
 10
-145.0920402869
 20
711.4079303019
 40
1.8800577711
 50
342.5129083032
 51
104.5793657609
  0
ARC
  8
CYAN
 10
-136.9929813039
 20
707.7450839194
 40
7.0257564953
 50
153.8364093408
 51
181.9569851605
  0
ARC
  8
CYAN
 10
-142.026648976
 20
707.6056594884
 40
1.990529693
 50
182.8940265228
 51
304.0079476945
  0
LINE
  8
CYAN
 10
-140.91333
 20
705.95559
 11
-132.4432
 21
712.98911
  0
LINE
  8
CYAN
 10
-132.4432
 20
712.98911
 11
-128.24212
 21
715.0884
  0
LINE
  8
CYAN
 10
-128.24212
 20
715.0884
 11
-125.40517
 21
712.03539
  0
LINE
  8
CYAN
 10
-125.40517
 20
712.03539
 11
-139.12391
 21
700.59081
  0
LINE
  8
CYAN
 10
-139.12391
 20
700.59081
 11
-137.76042
 21
699.12371
  0
LINE
  8
CYAN
 10
-137.76042
 20
699.12371
 11
-123.83122
 21
710.74386
  0
LINE
  8
CYAN
 10
-123.83122
 20
710.74386
 11
-121.44516
 21
710.09534
  0
LINE
  8
CYAN
 10
-121.44516
 20
710.09534
 11
-120.01418
 21
710.09534
  0
ARC
  8
CYAN
 10
-114.0764996997
 20
698.4977397391
 40
13.0292125303
 50
340.9264857221
 51
117.1113072472
  0
ARC
  8
CYAN
 10
-129.7932186049
 20
700.4026711456
 40
28.7000725195
 50
271.1853228203
 51
347.6005893318
  0
LINE
  8
CYAN
 10
-187.3119
 20
709.67669
 11
-187.56011
 21
708.77565
  0
LINE
  8
CYAN
 10
-187.56011
 20
708.77565
 11
-179.73758
 21
706.50234
  0
LINE
  8
CYAN
 10
-179.73758
 20
706.50234
 11
-180.29572
 21
704.58179
  0
LINE
  8
CYAN
 10
-180.29572
 20
704.58179
 11
-188.18261
 21
706.87382
  0
LINE
  8
CYAN
 10
-188.18261
 20
706.87382
 11
-189.75504
 21
702.7177
  0
ARC
  8
CYAN
 10
-184.8568487741
 20
700.8494369228
 40
5.2423929852
 50
159.1221997656
 51
244.3211043089
  0
LINE
  8
CYAN
 10
-187.12852
 20
696.1248
 11
-181.99736
 21
694.11057
  0
LINE
  8
CYAN
 10
-181.99736
 20
694.11057
 11
-179.92096
 21
693.07271
  0
ARC
  8
CYAN
 10
-172.6171608789
 20
701.0714799192
 40
10.8317035512
 50
227.6003183646
 51
322.9005981031
  0
ARC
  8
CYAN
 10
-165.3776295327
 20
695.6308790457
 40
1.7759686272
 50
322.012953289
 51
90.1684214303
  0
LINE
  8
CYAN
 10
-165.38285
 20
697.40684
 11
-167.76505
 21
697.22379
  0
ARC
  8
CYAN
 10
-167.982611308
 20
699.1949118223
 40
1.9830920707
 50
155.0415231685
 51
276.298490395
  0
ARC
  8
CYAN
 10
-175.3866324264
 20
703.9330326041
 40
6.8300076682
 50
325.1657228016
 51
358.5081076619
  0
ARC
  8
CYAN
 10
-166.9309309435
 20
703.8401996921
 40
1.630225977
 50
33.1617241022
 51
182.9883950277
  0
LINE
  8
CYAN
 10
-165.56622
 20
704.73194
 11
-163.67209
 21
702.96188
  0
ARC
  8
CYAN
 10
-162.6573203251
 20
704.8016098025
 40
2.1010386096
 50
241.1194750284
 51
1.4342959139
  0
ARC
  8
CYAN
 10
-170.4838308895
 20
705.3693707658
 40
9.9402496775
 50
357.0292154173
 51
101.5172472352
  0
LINE
  8
CYAN
 10
-172.46853
 20
715.10947
 11
-174.30117
 21
715.41478
  0
LINE
  8
CYAN
 10
-174.30117
 20
715.41478
 11
-179.43233
 21
717.00179
  0
ARC
  8
CYAN
 10
-180.9758890891
 20
712.0083504065
 40
5.2265680552
 50
72.8227106785
 51
155.2816710885
  0
ARC
  8
CYAN
 10
-253.5369678017
 20
735.5005231317
 40
71.081853964
 50
338.6971776646
 51
342.5575323102
  0
LINE
  8
CYAN
 10
-334.46749
 20
674.47372
 11
-330.65318
 21
669.66325
  0
ARC
  8
CYAN
 10
-321.4270621524
 20
682.4649499389
 40
15.7798850396
 50
234.2199057312
 51
309.0341089333
  0
ARC
  8
CYAN
 10
-303.0039751805
 20
660.2685600275
 40
13.0683846827
 50
48.9033593551
 51
130.4881691205
  0
ARC
  8
CYAN
 10
-300.0323804722
 20
662.4428429722
 40
9.511088462
 50
324.2663823934
 51
53.7898637105
  0
LINE
  8
CYAN
 10
-292.31184
 20
656.8882
 11
-294.76385
 21
653.53011
  0
ARC
  8
CYAN
 10
-288.0727712214
 20
649.8304407657
 40
7.6457888844
 50
151.0606676169
 51
221.8847390193
  0
LINE
  8
CYAN
 10
-293.76498
 20
644.72585
 11
-268.18229
 21
626.67085
  0
ARC
  8
CYAN
 10
-263.4136343102
 20
632.0401097536
 40
7.1811578029
 50
228.3904310243
 51
318.1523026166
  0
LINE
  8
CYAN
 10
-258.06424
 20
627.24918
 11
-256.89859
 21
628.87
  0
LINE
  8
CYAN
 10
-256.89859
 20
628.87
 11
-274.4364
 21
639.02496
  0
LINE
  8
CYAN
 10
-274.4364
 20
639.02496
 11
-273.26858
 21
640.6486
  0
LINE
  8
CYAN
 10
-273.26858
 20
640.6486
 11
-255.94499
 21
630.62878
  0
ARC
  8
CYAN
 10
-260.1727991063
 20
636.5805922534
 40
7.3005779866
 50
305.387693667
 51
11.3433620678
  0
ARC
  8
CYAN
 10
-247.4769200359
 20
638.176089984
 40
5.5402081331
 50
46.4524703367
 51
181.6503672334
  0
LINE
  8
CYAN
 10
-243.65996
 20
642.19165
 11
-238.3011
 21
636.56415
  0
ARC
  8
CYAN
 10
-215.8310635093
 20
654.155085551
 40
28.5367053714
 50
218.056038626
 51
253.0879050985
  0
ARC
  8
CYAN
 10
-222.2696370311
 20
531.6616591968
 40
95.2090971492
 50
58.6034191239
 51
91.1211278494
  0
ARC
  8
CYAN
 10
-170.2696506226
 20
612.821980257
 40
2.4024279781
 50
177.4129291802
 51
317.7297816592
  0
LINE
  8
CYAN
 10
-168.4919
 20
611.20604
 11
-165.35288
 21
617.04804
  0
LINE
  8
CYAN
 10
-165.35288
 20
617.04804
 11
-204.60019
 21
638.49587
  0
LINE
  8
CYAN
 10
-204.60019
 20
638.49587
 11
-203.6411
 21
640.25091
  0
LINE
  8
CYAN
 10
-203.6411
 20
640.25091
 11
-164.38581
 21
618.81943
  0
LINE
  8
CYAN
 10
-164.38581
 20
618.81943
 11
-161.6799
 21
624.36676
  0
ARC
  8
CYAN
 10
-163.601420216
 20
625.3161503191
 40
2.1432643137
 50
333.7068092062
 51
94.4855519985
  0
LINE
  8
CYAN
 10
-163.76904
 20
627.45285
 11
-165.85763
 21
627.18051
  0
ARC
  8
CYAN
 10
-112.6258117764
 20
731.3556079034
 40
116.9875099939
 50
229.9150328535
 51
242.9336901452
  0
LINE
  8
CYAN
 10
-187.95675
 20
641.84959
 11
-202.94305
 21
657.8244
  0
ARC
  8
CYAN
 10
-214.8524893088
 20
647.9781696336
 40
15.4526048638
 50
39.582530769
 51
84.5624917329
  0
LINE
  8
CYAN
 10
-213.3882
 20
663.36124
 11
-224.28708
 21
664.63194
  0
ARC
  8
CYAN
 10
-222.6265967065
 20
668.9395362838
 40
4.6165561311
 50
194.179017915
 51
248.9194498546
  0
LINE
  8
CYAN
 10
-227.10251
 20
667.8087
 11
-227.55679
 21
671.98383
  0
ARC
  8
CYAN
 10
-230.0427877126
 20
669.0851095991
 40
3.8187386124
 50
49.382982134
 51
110.7337544629
  0
LINE
  8
CYAN
 10
-231.39472
 20
672.65653
 11
-240.00491
 21
659.93703
  0
LINE
  8
CYAN
 10
-240.00491
 20
659.93703
 11
-241.66112
 21
661.05817
  0
LINE
  8
CYAN
 10
-241.66112
 20
661.05817
 11
-233.05094
 21
673.77767
  0
ARC
  8
CYAN
 10
-235.8053913293
 20
674.769702207
 40
2.9276492319
 50
340.1932107511
 51
81.9272401591
  0
ARC
  8
CYAN
 10
-235.8499989597
 20
682.4235291821
 40
4.7769783501
 50
188.1771442624
 51
275.4745261393
  0
ARC
  8
CYAN
 10
-243.4803559643
 20
679.2451091735
 40
3.8296403972
 50
40.7329333182
 51
116.1180811364
  0
LINE
  8
CYAN
 10
-245.16625
 20
682.6837
 11
-255.24797
 21
672.79041
  0
LINE
  8
CYAN
 10
-255.24797
 20
672.79041
 11
-256.64742
 21
674.21924
  0
LINE
  8
CYAN
 10
-256.64742
 20
674.21924
 11
-246.5657
 21
684.11253
  0
ARC
  8
CYAN
 10
-249.1802171507
 20
685.7525552235
 40
3.0863218668
 50
327.9009167404
 51
93.7326561948
  0
LINE
  8
CYAN
 10
-249.38114
 20
688.83233
 11
-252.10572
 21
689.01401
  0
ARC
  8
CYAN
 10
-250.7954383144
 20
692.9588673378
 40
4.1567700816
 50
173.0551315688
 51
251.6261278753
  0
LINE
  8
CYAN
 10
-254.92171
 20
693.46148
 11
-254.92171
 21
695.78572
  0
LINE
  8
CYAN
 10
-254.92171
 20
695.78572
 11
-265.82058
 21
695.54887
  0
LINE
  8
CYAN
 10
-265.82058
 20
695.54887
 11
-265.86388
 21
697.5484
  0
LINE
  8
CYAN
 10
-265.86388
 20
697.5484
 11
-254.88495
 21
697.78612
  0
ARC
  8
CYAN
 10
-263.3660807916
 20
696.7591903172
 40
8.5430769678
 50
6.9039954392
 51
129.4265423313
  0
LINE
  8
CYAN
 10
-268.79169
 20
703.3582
 11
-282.4157
 21
702.45051
  0
ARC
  8
CYAN
 10
-280.8989267373
 20
696.5511746953
 40
6.0912033431
 50
104.4189632281
 51
185.9920606255
  0
LINE
  8
CYAN
 10
-286.95685
 20
695.91531
 11
-286.23056
 21
694.46327
  0
ARC
  8
CYAN
 10
-289.1306236848
 20
692.6114182671
 40
3.4408900326
 50
197.8123183558
 51
32.560491841
  0
LINE
  8
CYAN
 10
-292.40657
 20
691.55885
 11
-293.13287
 21
694.10026
  0
ARC
  8
CYAN
 10
-305.2167329176
 20
689.746312894
 40
12.8443216408
 50
19.8146425677
 51
70.651122831
  0
LINE
  8
CYAN
 10
-300.96116
 20
701.86517
 11
-310.78607
 21
688.72704
  0
LINE
  8
CYAN
 10
-310.78607
 20
688.72704
 11
-312.38775
 21
689.9248
  0
LINE
  8
CYAN
 10
-312.38775
 20
689.9248
 11
-302.8252
 21
702.7121
  0
LINE
  8
CYAN
 10
-302.8252
 20
702.7121
 11
-311.84316
 21
707.44266
  0
ARC
  8
CYAN
 10
-318.6415224853
 20
705.0667402068
 40
7.2015781149
 50
19.2637103862
 51
163.8894280158
  0
LINE
  8
CYAN
 10
-325.56028
 20
707.06512
 11
-317.24456
 21
703.07351
  0
LINE
  8
CYAN
 10
-317.24456
 20
703.07351
 11
-318.11003
 21
701.27047
  0
LINE
  8
CYAN
 10
-318.11003
 20
701.27047
 11
-326.57074
 21
705.33167
  0
ARC
  8
CYAN
 10
-305.8865530777
 20
691.8275017131
 40
24.7021891693
 50
146.8605239524
 51
172.3904153786
  0
LINE
  8
CYAN
 10
-330.3712
 20
695.09862
 11
-322.46947
 21
695.73398
  0
LINE
  8
CYAN
 10
-322.46947
 20
695.73398
 11
-322.30826
 21
693.74048
  0
LINE
  8
CYAN
 10
-322.30826
 20
693.74048
 11
-330.33792
 21
693.09113
  0
ARC
  8
CYAN
 10
-306.2937713764
 20
692.2547387569
 40
24.0586914304
 50
178.007732611
 51
199.8577904837
  0
LINE
  8
CYAN
 10
-328.9219
 20
684.08232
 11
-323.3869
 21
686.27307
  0
LINE
  8
CYAN
 10
-323.3869
 20
686.27307
 11
-322.65086
 21
684.41343
  0
LINE
  8
CYAN
 10
-322.65086
 20
684.41343
 11
-328.18828
 21
682.22172
  0
ARC
  8
CYAN
 10
-304.0210350952
 20
688.918796143
 40
25.0780093937
 50
195.4887849372
 51
203.4944774451
  0
ARC
  8
CYAN
 10
-329.249092276
 20
678.6374882605
 40
2.2470324992
 50
247.5260619146
 51
7.2530473258
  0
LINE
  8
CYAN
 10
-330.10805
 20
676.56111
 11
-331.7429
 21
677.92282
  0
LINE
  8
CYAN
 10
-331.7429
 20
677.92282
 11
-333.01434
 21
678.19517
  0
ARC
  8
CYAN
 10
-333.0985310791
 20
676.0836072366
 40
2.1132405073
 50
87.7167433331
 51
229.6240028377
  0
LINE
  8
CYAN
 10
-330.49206
 20
457.57776
 11
-310.83048
 21
457.60125
  0
LINE
  8
CYAN
 10
-310.83048
 20
457.60125
 11
-310.82809
 21
455.60125
  0
LINE
  8
CYAN
 10
-310.82809
 20
455.60125
 11
-330.47183
 21
455.57778
  0
ARC
  8
CYAN
 10
-311.0175300896
 20
448.4229501225
 40
20.7282747854
 50
159.8076754617
 51
272.5672769711
  0
LINE
  8
CYAN
 10
-310.08906
 20
427.71548
 11
-304.58505
 21
427.64129
  0
ARC
  8
CYAN
 10
-304.5146028814
 20
452.6283682087
 40
24.9871775158
 50
269.8384640314
 51
333.8978549472
  0
LINE
  8
CYAN
 10
-282.07584
 20
441.63469
 11
-310.32084
 21
434.58563
  0
LINE
  8
CYAN
 10
-310.32084
 20
434.58563
 11
-310.80512
 21
436.52611
  0
LINE
  8
CYAN
 10
-310.80512
 20
436.52611
 11
-281.53179
 21
443.83181
  0
ARC
  8
CYAN
 10
-294.2239399642
 20
448.2527903283
 40
13.4400795301
 50
340.7955469989
 51
6.7496037831
  0
LINE
  8
CYAN
 10
-280.87701
 20
449.83241
 11
-303.27715
 21
445.00399
  0
LINE
  8
CYAN
 10
-303.27715
 20
445.00399
 11
-303.69857
 21
446.95909
  0
LINE
  8
CYAN
 10
-303.69857
 20
446.95909
 11
-280.51154
 21
451.95713
  0
ARC
  8
CYAN
 10
-296.0692600441
 20
456.7718919194
 40
16.2857172182
 50
342.8038881911
 51
19.8289371008
  0
LINE
  8
CYAN
 10
-280.74913
 20
462.29622
 11
-303.94241
 21
466.96228
  0
LINE
  8
CYAN
 10
-303.94241
 20
466.96228
 11
-303.54795
 21
468.92299
  0
LINE
  8
CYAN
 10
-303.54795
 20
468.92299
 11
-281.74159
 21
464.53595
  0
ARC
  8
CYAN
 10
-292.2522501772
 20
466.9449427079
 40
10.7831916995
 50
347.0910388674
 51
20.3987986609
  0
LINE
  8
CYAN
 10
-282.14528
 20
470.70345
 11
-311.71012
 21
477.51525
  0
LINE
  8
CYAN
 10
-311.71012
 20
477.51525
 11
-311.26108
 21
479.46419
  0
LINE
  8
CYAN
 10
-311.26108
 20
479.46419
 11
-282.95441
 21
472.94227
  0
ARC
  8
CYAN
 10
-298.604528654
 20
467.258520634
 40
16.650261882
 50
19.9598127584
 51
58.3177616796
  0
ARC
  8
CYAN
 10
-308.1323345787
 20
455.0129903231
 40
32.1187501884
 50
55.3257995063
 51
116.6008242226
  0
ARC
  8
CYAN
 10
-310.8960382199
 20
465.8941658357
 40
21.2877118458
 50
123.0772254959
 51
202.9960064425
  0
LINE
  8
CYAN
 10
-340.29185
 20
422.1446
 11
29.04149
 21
422.1446
  0
LINE
  8
CYAN
 10
29.04149
 20
422.1446
 11
29.04149
 21
722.1446
  0
LINE
  8
CYAN
 10
29.04149
 20
722.1446
 11
-340.29185
 21
722.1446
  0
LINE
  8
CYAN
 10
-340.29185
 20
722.1446
 11
-340.29185
 21
422.1446
  0
ENDSEC
  0
EOF
